<?xml version="1.0" encoding="UTF-8" standalone="no"?>
<svg width="186px" height="64px" viewBox="0 0 186 64" version="1.1" xmlns="http://www.w3.org/2000/svg" xmlns:xlink="http://www.w3.org/1999/xlink" xmlns:sketch="http://www.bohemiancoding.com/sketch/ns">
    <!-- Generator: Sketch 3.3.2 (12043) - http://www.bohemiancoding.com/sketch -->
    <title>google</title>
    <desc>Created with Sketch.</desc>
    <defs></defs>
    <g id="Page-1" stroke="none" stroke-width="1" fill="none" fill-rule="evenodd" sketch:type="MSPage">
        <g id="google" sketch:type="MSLayerGroup" fill="#CD1D1D">
            <g id="Page-1" sketch:type="MSShapeGroup">
                <g id="google">
                    <g id="layer1" transform="translate(0.102005, 0.195558)">
                        <path d="M28.6443243,30.9893436 L36.6035521,30.9893436 L36.6035521,42.1683398 C34.1201544,42.9664865 30.9844015,43.403861 27.7250965,43.403861 C14.5149035,43.403861 6.75088803,32.0914286 6.75088803,21.0433977 C6.75088803,10.2078764 13.7735907,2.60694981 23.5712741,2.60694981 C29.7711197,2.60694981 33.3788417,4.70733591 36.6060232,7.63305019 L36.6060232,11.2803089 L42.6576062,5.22872587 C38.8299614,2.63907336 33.2874131,0.177915058 25.365251,0.177915058 C7.97405405,0.177915058 0.0247104247,12.6196139 0.0247104247,22.8447876 C0.0247104247,37.3992278 10.6254826,46.1664865 23.9468726,46.1664865 C30.4061776,46.1664865 36.1414672,45.1805405 42.766332,43.3371429 L42.766332,31.7874903 C42.766332,31.1969112 43.0257915,30.7916602 43.4137452,30.4358301 L45.5042471,28.3453282 L31.3081081,28.3453282 L28.6443243,30.9893436 L28.6443243,30.9893436 Z" id="path4423"></path>
                        <path d="M64.2989961,15.7973745 C54.2888031,15.7973745 48.0864865,23.1116602 48.0864865,30.8756757 C48.0864865,37.5771429 53.0829344,45.5338996 63.2067954,45.5338996 C72.9451737,45.5338996 78.9201544,38.2047876 78.9201544,30.3048649 C78.9201544,22.9461004 73.0810811,15.7998456 64.2989961,15.7998456 L64.2989961,15.7973745 L64.2989961,15.7973745 Z M62.6384556,17.9298842 C69.6957529,17.9298842 72.8389189,27.1246332 72.8389189,33.6827799 C72.8389189,43.4359846 65.5221622,43.6287259 64.6474131,43.6287259 C61.2991506,43.6287259 58.9590734,41.6049421 57.2071042,38.9510425 C55.6651737,36.5047104 54.1578378,31.9604633 54.1578378,27.52 C54.1578378,23.096834 55.6058687,20.9371429 57.8841699,19.3482625 C59.7473359,18.1572201 61.4918919,17.9298842 62.6359846,17.9298842 L62.6384556,17.9298842 L62.6384556,17.9298842 Z" id="path4425"></path>
                        <path d="M129.734672,15.7949035 C120.992124,15.7949035 116.262548,21.3300386 116.262548,27.5101158 C116.262548,32.2149807 119.63305,37.5227799 126.586564,37.5227799 L128.345946,37.5227799 C128.345946,37.5227799 127.866564,38.6866409 127.864093,39.8109653 C127.864093,41.4690347 128.459614,42.4006178 129.724788,43.8338224 C117.76,44.5627799 112.951351,49.3887259 112.951351,54.575444 C112.951351,59.1172201 117.300386,63.5873359 126.440772,63.5873359 C137.261467,63.5873359 142.865792,57.5802317 142.865792,51.6843243 C142.865792,47.5280309 140.795058,45.2497297 135.551506,41.3207722 C134.009575,40.1223166 133.710579,39.3587645 133.710579,38.4617761 C133.710579,37.176834 134.479073,36.3267954 134.760772,36.0055598 C135.257452,35.4816988 136.117375,34.8837066 136.43861,34.5970656 C138.200463,33.104556 140.688803,30.895444 140.688803,26.4871042 C140.688803,23.4625483 139.431042,20.8605405 136.564633,18.4240927 L140.063629,18.4240927 L142.692819,15.7949035 L129.737143,15.7949035 L129.734672,15.7949035 L129.734672,15.7949035 Z M127.322934,17.7618533 C128.909344,17.7618533 130.233822,18.3227799 131.632432,19.4866409 C133.184247,20.885251 135.662703,24.6437066 135.662703,29.2942085 C135.662703,34.3128958 131.763398,35.6867954 129.653127,35.6867954 C128.620232,35.6867954 127.382239,35.3976834 126.334517,34.6810811 C124.006795,33.1712741 121.696371,29.1533591 121.696371,24.3718919 C121.696371,20.0574517 124.266255,17.7618533 127.322934,17.7618533 L127.322934,17.7618533 L127.322934,17.7618533 Z M130.784865,45.7389961 C131.452046,45.7389961 131.931429,45.7933591 131.931429,45.7933591 C131.931429,45.7933591 133.505483,46.9176834 134.605097,47.7578378 C137.165097,49.7816216 138.76139,51.3284942 138.76139,54.0837066 C138.76139,57.8718147 135.247568,60.8420077 129.556757,60.8420077 C123.309961,60.8420077 118.535907,57.9335907 118.535907,53.1842471 C118.535907,49.2503475 121.807568,45.8650193 130.784865,45.7389961 L130.784865,45.7389961 L130.784865,45.7389961 Z" id="path4429"></path>
                        <path d="M144.585637,44.6665637 L156.58749,44.6665637 L158.416062,42.8379923 L154.9739,42.4080309 C154.047259,42.2943629 153.496216,41.4937452 153.496216,40.7178378 L153.496216,4.46517375 C153.496216,3.75104247 153.827336,3.38532819 154.069498,3.15305019 L156.234131,0.988416988 L145.999073,0.988416988 L143.33529,3.65220077 L147.313668,3.65220077 L147.313668,41.2046332 C147.313668,41.7383784 147.145637,42.1016216 146.784865,42.474749 L144.585637,44.6665637 L144.585637,44.6665637 Z" id="path4433"></path>
                        <path d="M172.849421,15.7973745 C166.147954,15.7973745 159.02888,20.9050193 159.02888,30.0750579 C159.02888,37.6488031 164.136525,45.5338996 173.679691,45.5338996 C176.059305,45.5338996 178.018842,45.2274903 179.854826,44.3848649 C181.824247,43.4779923 183.719537,42.005251 185.10332,40.1544402 C182.491429,41.4715058 180.36139,42.3363707 177.532046,42.3363707 C172.155058,42.3363707 166.970811,38.456834 165.157066,31.3254054 L184.151969,23.6478764 C183.054826,19.7362162 179.961081,15.7973745 172.851892,15.7973745 L172.849421,15.7973745 L172.849421,15.7973745 Z M171.608958,17.8952896 C175.204324,17.8952896 177.803861,20.8531274 177.803861,23.1684942 C177.803861,23.9172201 177.334363,24.3125869 176.405251,24.6783012 L164.729575,29.4004633 C164.729575,29.4004633 164.413282,27.9301931 164.413282,26.3413127 C164.413282,19.6769112 169.231815,17.8952896 171.608958,17.8952896 L171.608958,17.8952896 L171.608958,17.8952896 Z" id="path4435"></path>
                        <path d="M98.2659459,15.7973745 C88.2557529,15.7973745 82.0534363,23.1116602 82.0534363,30.8756757 C82.0534363,37.5771429 87.0498842,45.5338996 97.1737452,45.5338996 C106.912124,45.5338996 112.887104,38.2047876 112.887104,30.3048649 C112.887104,22.9461004 107.048031,15.7998456 98.2659459,15.7998456 L98.2659459,15.7973745 L98.2659459,15.7973745 Z M96.6054054,17.9298842 C103.662703,17.9298842 106.805869,27.1246332 106.805869,33.6827799 C106.805869,43.4359846 99.489112,43.6287259 98.6143629,43.6287259 C95.2661004,43.6287259 92.9260232,41.6049421 91.1740541,38.9510425 C89.6321236,36.5047104 88.1247876,31.9604633 88.1247876,27.52 C88.1247876,23.096834 89.5728185,20.9371429 91.8511197,19.3482625 C93.7142857,18.1572201 95.4588417,17.9298842 96.6029344,17.9298842 L96.6054054,17.9298842 L96.6054054,17.9298842 Z" id="path4439"></path>
                    </g>
                </g>
            </g>
        </g>
    </g>
</svg>