<?xml version="1.0" encoding="UTF-8" standalone="no"?>
<svg width="75px" height="64px" viewBox="0 0 75 64" version="1.1" xmlns="http://www.w3.org/2000/svg" xmlns:xlink="http://www.w3.org/1999/xlink" xmlns:sketch="http://www.bohemiancoding.com/sketch/ns">
    <!-- Generator: Sketch 3.3.2 (12043) - http://www.bohemiancoding.com/sketch -->
    <title>rbtcrp</title>
    <desc>Created with Sketch.</desc>
    <defs></defs>
    <g id="Page-1" stroke="none" stroke-width="1" fill="none" fill-rule="evenodd" sketch:type="MSPage">
        <g id="rbtcrp" sketch:type="MSLayerGroup" fill="#CD1D1D">
            <g id="Group" sketch:type="MSShapeGroup">
                <g id="Shape">
                    <path d="M6.2704,24.412 C6.2704,23.9152 5.9632,23.5824 5.4768,23.5824 C4.432,23.5824 3.5128,24.7816 3.5128,25.7728 C3.5128,26.268 3.8192,26.592 4.3144,26.592 C5.36,26.592 6.2704,25.3944 6.2704,24.412 L6.2704,24.412 Z M6.7208,24.3928 C6.7208,25.5736 5.6112,26.8896 4.2336,26.8896 C3.5392,26.8896 3.0616,26.4392 3.0616,25.7808 C3.0616,24.6088 4.1696,23.2936 5.5584,23.2936 C6.2432,23.2936 6.7208,23.736 6.7208,24.3928 L6.7208,24.3928 Z M5.9464,24.5192 C5.9464,24.9248 5.468,25.3216 4.8104,25.3936 C4.9184,25.5376 5.0264,25.7 5.0712,25.7808 C5.1344,25.9072 5.1256,25.9968 5.0448,26.1232 C4.8368,25.9704 4.6208,25.7264 4.396,25.4648 C4.2616,25.6456 4.1344,25.7984 4.0352,25.9152 C3.8728,25.8072 3.8728,25.6176 3.9456,25.4912 C4.0992,25.2296 4.3784,24.8336 4.6128,24.5368 C4.5672,24.5008 4.5224,24.4464 4.5048,24.4104 C4.7208,24.2112 5.072,24.0944 5.388,24.0944 C5.7112,24.096 5.9464,24.2312 5.9464,24.5192 L5.9464,24.5192 Z M5.4768,24.5824 C5.4768,24.4568 5.3416,24.4016 5.1712,24.4384 C5.036,24.6272 4.8552,24.8792 4.6576,25.1224 C5.1336,25.0688 5.4768,24.7816 5.4768,24.5824 L5.4768,24.5824 Z"></path>
                    <path d="M66.488,13.9128 C65.464,16.8424 64.4112,20.0512 64.9816,21.708 C65.148,22.1928 65.5688,22.3648 66.0944,22.1832 C68.3984,21.3904 69.116,19.9664 69.892,17.7568 C69.984,17.4984 70.1056,17.4568 70.3096,17.6584 C70.7048,18.0184 70.7248,18.5864 70.6344,19.1272 C70.4088,20.6168 69.124,23.8968 65.6504,25.0936 C63.9944,25.664 62.676,24.988 62.0776,23.2512 C61.9992,23.0216 61.9384,22.7728 61.8952,22.5064 C61.4528,23.1288 60.8816,23.6624 60.1328,23.9208 C59.6872,24.0744 59.2824,24.0776 58.8896,23.9872 C58.1536,26.184 56.7688,28.1984 54.7888,28.8792 C53.1832,29.4312 51.38,28.76 50.6608,26.732 C50.2864,27.1344 49.8392,27.4648 49.2976,27.6512 C48.7728,27.832 48.2312,27.836 47.6904,27.708 C47.1872,30.1848 45.8176,32.5088 43.596,33.2752 C41.6984,33.928 39.9992,32.9312 39.3168,30.952 C39.248,30.752 39.188,30.5512 39.1344,30.3464 C38.5312,31.0464 37.78,31.6256 36.8432,31.8408 C36.3016,31.9664 35.8248,31.9208 35.3736,31.7656 C34.2384,34.2576 32.3584,36.4552 29.9456,37.0136 C27.976,37.4672 25.9232,36.4368 25.344,33.9264 C24.1728,28.8544 28.084,22.6608 33.3536,21.4448 C34.1408,21.2624 34.9144,21.2392 35.6232,21.3872 C35.952,21.4664 36.0208,21.7624 35.6496,21.952 C31.7512,23.9408 28.9984,29.0888 29.7144,32.1912 C29.9192,33.0784 30.3896,33.54 31.2264,33.3472 C32.26,33.108 33.3096,32.0352 34.0936,30.7136 C33.844,30.3048 33.6424,29.8848 33.5288,29.392 C33.0288,27.2256 34.2072,24.464 35.684,24.1232 C36.1272,24.0208 36.4528,24.3088 36.6008,24.9488 C36.8848,26.18 36.7312,27.9784 36.1688,29.82 C36.3288,29.8352 36.488,29.8504 36.6848,29.804 C37.4808,29.62 38.1888,29.056 38.868,28.0968 C38.8648,25.4584 39.7944,22.408 40.9512,18.64 C42.4344,14.0176 45.9768,4.7528 47.7864,0.56 C47.9456,0.2336 48.04,0.2456 48.3392,0.3248 C49.0024,0.5472 49.628,0.92 49.8928,1.688 C50.324,2.94 50.2832,5.2048 49.008,8.7176 C46.8616,14.5616 40.6704,25.6968 42.02,29.6152 C42.2696,30.3432 42.9224,30.6608 43.6896,30.3968 C44.7808,30.0208 45.9568,28.7128 46.4656,26.9096 C45.9872,26.4424 45.6312,25.7968 45.3528,24.9896 C44.6296,22.8888 45.2328,21.0984 45.88,20.8752 C46.4448,20.6808 47.1144,21.4448 47.5184,22.616 C47.8368,23.5456 47.9976,24.6656 47.9552,25.8544 C48.2552,26.068 48.62,26.0776 48.9032,25.98 C49.4152,25.8048 49.864,25.4504 50.2696,24.9136 C49.9648,21.32 52.3544,17.8352 56.0664,16.5584 C56.7136,16.336 57.3608,16.2472 57.9704,16.3096 C58.2536,16.3464 58.3336,16.5888 58.0456,16.792 C51.4104,21.4688 53.9616,26.22 55.548,25.6744 C56.396,25.3824 57.1784,24.3968 57.7208,23.216 C57.4736,22.8944 57.268,22.5592 57.1288,22.1544 C56.5168,20.3768 57.2632,17.9512 58.4752,17.5336 C58.84,17.408 59.1384,17.6216 59.3192,18.1472 C59.6672,19.1568 59.696,20.6824 59.3864,22.2808 C59.5224,22.28 59.6576,22.2784 59.8192,22.2224 C60.6624,21.932 61.3272,21.1216 61.916,19.7536 C62.092,18.304 62.4752,16.6664 62.9432,15 C61.9592,15.1584 61.1856,14.8824 60.5704,14.2808 C60.3664,14.08 60.4056,13.9312 60.5936,13.8216 C60.9832,13.6032 64.3176,12.0784 64.3176,12.0784 C64.3176,12.0784 66.0344,6.0296 66.292,5.1704 C66.384,4.9136 66.4768,4.7904 66.7752,4.8696 C67.2232,4.9864 67.7536,5.3456 68.0808,5.7752 C68.752,6.6744 68.5976,7.8032 68.1792,9.212 L67.6432,10.9864 C68.384,10.7752 68.86,10.6584 69.372,10.5728 C69.628,10.5304 69.724,10.6776 69.6872,10.9616 C69.6232,11.4336 69.4264,11.9096 69.2,12.304 C68.7088,13.1048 67.7416,13.4816 66.488,13.9128 L66.488,13.9128 Z M13.3168,23.6368 C13.0584,24.4128 12.7848,25.3352 12.6624,26.0288 C12.6624,26.0288 13.092,24.0432 15.956,23.0744 C23.9184,21.0672 29.1456,16.7992 30.4888,12.288 C32.0232,7.184 27.9896,4.9632 20.892,5.9832 C14.0864,6.9552 10.2376,9.1448 7.5272,11.388 C3.1976,14.9728 1.1288,19.5816 7.78,19.0456 C9.3176,19.1416 9.1752,20.5592 8.1936,21.1808 C7.1792,21.8224 5.8912,22.1944 4.1952,22.1072 C-0.7096,21.8952 -1.0096,16.7416 2.2912,12.0192 C5.416,7.5496 13.448,2.7624 21.9144,1.7616 C31.5968,0.6128 36.6032,5.66 33.9368,13.4528 C31.7808,19.7568 26.3392,23.8192 19.5112,26.3304 C18.8464,26.5744 18.0296,26.7544 14.3448,28.048 C16.0312,30.1384 18.2336,32.6576 22.0584,35.476 C24.788,37.4888 32.2,41.5032 42.9264,36.384 C44.9056,35.2872 47.1,34.0504 49.6232,32.7624 C49.7376,32.704 49.824,32.78 49.7808,32.9008 L48.3344,36.9736 L63.8688,29.4488 C63.9776,29.396 64.0576,29.464 64.0264,29.58 L63.1656,32.7712 L74.344,27.784 C74.4872,27.72 74.5824,27.9008 74.4496,27.9824 L59.3016,37.4256 C59.192,37.4936 59.0992,37.4232 59.1336,37.2992 L60.06,33.9224 L42.9392,44.1536 C42.824,44.2216 42.7296,44.1432 42.7744,44.0176 L44.396,39.5208 L44.16,39.6976 C26.96,49.7176 14.5808,37.0536 11.4584,32.5272 L9.1824,29.592 C9.1824,29.592 11.136,33.1856 10.7616,36.2704 C10.6872,36.8864 10.6768,37.0656 10.708,36.9688 C10.2408,40.0712 9.8408,43.1952 9.5384,44.6456 C9.2344,46.108 7.8656,46.4768 6.4032,46.416 C4.3608,46.3304 3.3672,44.9976 3.7928,43.0528 C4.4856,39.8952 6.1528,32.2936 7.5504,28.1376 C7.3672,27.7416 7.3152,27.1544 7.384,26.8296 C7.5336,26.1192 8.2232,23.7912 9.1328,23.6112 C11.084,18.0904 12.656,14.4632 14.4504,11.0864 C15.9624,7.9568 19.7104,6.6384 19.468,7.3496 C17.6096,11.284 15.5048,17.0928 13.3168,23.6368 Z"></path>
                </g>
                <g transform="translate(18.400000, 52.800000)" id="Shape">
                    <path d="M0.3248,7.1592 C0.3248,8.1096 0.5256,10.6552 3.9352,10.6552 C6.9992,10.6552 7.4744,8.5984 7.532,7.5048 C7.5464,7.2888 7.416,7.1312 7.2152,7.088 L5.5896,6.728 C5.3016,6.656 5.0712,6.844 5.028,7.1448 C4.9424,7.8064 4.7264,8.1808 3.9352,8.1808 C2.8704,8.1808 2.7992,7.504 2.7992,6.3976 L2.7992,4.3256 C2.7992,3.2184 2.8704,2.5424 3.9352,2.5424 C4.712,2.5424 4.9712,2.9176 5.0424,3.5504 C5.0864,3.852 5.316,4.0528 5.6184,3.996 L7.216,3.6368 C7.4168,3.5928 7.5472,3.4352 7.5328,3.2336 C7.4752,2.1256 7,0.0696 3.936,0.0696 C0.5264,0.0696 0.3256,2.616 0.3256,3.5648 L0.3256,7.1592 L0.3248,7.1592 Z"></path>
                    <path d="M16.016,3.564 C16.016,2.6144 15.8152,0.0688 12.4048,0.0688 C8.996,0.0688 8.7944,2.6152 8.7944,3.564 L8.7944,7.1592 C8.7944,8.1096 8.9952,10.6552 12.4048,10.6552 C15.8152,10.6552 16.016,8.1088 16.016,7.1592 L16.016,3.564 L16.016,3.564 Z M13.5408,6.3976 C13.5408,7.5048 13.4688,8.1808 12.4048,8.1808 C11.3408,8.1808 11.2688,7.504 11.2688,6.3976 L11.2688,4.3256 C11.2688,3.2184 11.3408,2.5424 12.4048,2.5424 C13.4688,2.5424 13.5408,3.2192 13.5408,4.3256 L13.5408,6.3976 L13.5408,6.3976 Z"></path>
                    <path d="M23.7816,6.7856 C23.7528,6.7136 23.7672,6.6408 23.8248,6.5984 C24.5872,6.0512 24.9184,5.1168 24.9184,3.78 C24.9184,1.4208 23.8824,0.3272 21.3224,0.3272 L18.1712,0.3272 C17.9128,0.3272 17.7256,0.5144 17.7256,0.7744 L17.7256,9.9512 C17.7256,10.2104 17.912,10.3976 18.1712,10.3976 L19.7824,10.3976 C20.0416,10.3976 20.2288,10.2112 20.2288,9.9512 L20.2288,7.6792 C20.2288,7.42 20.416,7.232 20.6752,7.232 L21.2512,7.232 C21.2944,7.232 21.3376,7.2616 21.3672,7.3048 L22.8632,10.196 C22.92,10.3256 23.0496,10.3968 23.1936,10.3968 L24.8336,10.3968 C25.28,10.3968 25.5104,9.9944 25.308,9.62 L23.7816,6.7856 L23.7816,6.7856 Z M21.408,2.8016 C22.0984,2.8016 22.4432,2.8872 22.4432,3.78 C22.4432,4.6712 22.0984,4.7584 21.408,4.7584 L20.6736,4.7584 C20.4152,4.7584 20.2272,4.5712 20.2272,4.312 L20.2272,3.248 C20.2272,2.9896 20.4144,2.8016 20.6736,2.8016 L21.408,2.8016 L21.408,2.8016 Z"></path>
                    <path d="M27.1008,0.3264 C26.8136,0.3416 26.6704,0.4856 26.6704,0.7736 L26.6704,9.9656 C26.6704,10.2384 26.828,10.396 27.1008,10.396 L28.712,10.396 C29,10.396 29.144,10.2528 29.144,9.9656 L29.144,7.6632 C29.144,7.3752 29.3016,7.2312 29.576,7.2312 L30.2664,7.2312 C32.8256,7.2312 33.8616,6.1384 33.8616,3.78 C33.8616,1.4208 32.8256,0.3272 30.2664,0.3272 L27.1008,0.3272 L27.1008,0.3264 Z M29.576,4.7576 C29.3016,4.7576 29.144,4.6 29.144,4.3256 L29.144,3.2328 C29.144,2.9456 29.3016,2.8016 29.576,2.8016 L30.3528,2.8016 C31.0432,2.8016 31.3888,2.8872 31.3888,3.78 C31.3888,4.6712 31.0432,4.7584 30.3528,4.7584 L29.576,4.7584 L29.576,4.7576 Z"></path>
                    <path d="M37.0672,7.9224 C37.3544,7.9224 37.4984,8.0664 37.4984,8.3536 L37.4984,9.9656 C37.4984,10.2384 37.3544,10.396 37.0672,10.396 L35.4568,10.396 C35.1824,10.396 35.0248,10.2384 35.0248,9.9656 L35.0248,8.3536 C35.0248,8.0664 35.1824,7.9224 35.4568,7.9224 L37.0672,7.9224 L37.0672,7.9224 Z"></path>
                </g>
            </g>
        </g>
    </g>
</svg>