<?xml version="1.0" encoding="UTF-8" standalone="no"?>
<svg width="130px" height="64px" viewBox="0 0 130 64" version="1.1" xmlns="http://www.w3.org/2000/svg" xmlns:xlink="http://www.w3.org/1999/xlink" xmlns:sketch="http://www.bohemiancoding.com/sketch/ns">
    <!-- Generator: Sketch 3.3.2 (12043) - http://www.bohemiancoding.com/sketch -->
    <title>redbull</title>
    <desc>Created with Sketch.</desc>
    <defs></defs>
    <g id="Page-1" stroke="none" stroke-width="1" fill="none" fill-rule="evenodd" sketch:type="MSPage">
        <g id="redbull" sketch:type="MSLayerGroup">
            <g id="Page-1" sketch:type="MSShapeGroup">
                <g id="redbull">
                    <path d="M98.589991,12.6001076 L92.7565202,12.6001076 L92.7565202,24.0497937 C92.7565202,27.7817399 96.7421704,30.9702601 101.669883,30.9702601 C106.597596,30.9702601 110.909274,27.7455785 110.909274,24.0497937 L110.909274,12.6001076 L105.075803,12.6001076 L105.075803,22.9264933 C105.075803,24.6295247 103.626475,26.0062422 101.850978,26.0062422 C100.039318,26.0062422 98.589991,24.6293812 98.589991,22.8901883 L98.589991,12.6001076 L98.589991,12.6001076 Z" id="Shape" fill="#CD1D1D"></path>
                    <path d="M6.05086996,6.29553363 L6.05086996,30.0643587 L0,30.0643587 L0,1.40412556 L10.9061166,1.40412556 C15.6527354,1.40412556 19.5296143,5.24484305 19.5296143,9.91885202 C19.5296143,13.9045022 16.7397309,17.2379552 12.9714798,18.1074081 L21.3775785,30.0643587 L14.1671031,30.0643587 L8.11623318,20.6800359 L8.11623318,13.8320359 L9.5293991,13.8320359 C11.7758565,13.8320359 13.5875157,12.1653094 13.5875157,10.1000897 C13.5875157,8.03472646 11.8844843,6.29553363 9.6381704,6.29553363 L6.05086996,6.29553363 L6.05086996,6.29553363 Z" id="Shape" fill="#CD1D1D"></path>
                    <path d="M61.7410583,30.0643587 L61.7410583,0.027264574 L56.0162152,0.027264574 L56.0162152,14.1943677 C54.4944215,12.7087354 52.5741345,11.8754439 50.3638386,11.8754439 C45.6535247,11.8754439 41.8128072,16.0423318 41.8128072,21.2236054 C41.8128072,26.368574 45.6535247,30.5717668 50.3638386,30.5717668 C52.610296,30.5717668 54.7118206,29.7021704 56.0162152,28.1079103 L56.0162152,30.0645022 L61.7410583,30.0645022 L61.7410583,30.0643587 L61.7410583,30.0643587 Z M51.9942601,25.6802152 C49.6753363,25.6802152 47.7912108,23.614852 47.7912108,21.0786726 C47.7912108,18.5424933 49.6753363,16.47713 51.9942601,16.47713 C54.3131839,16.47713 56.1973094,18.5424933 56.1973094,21.0786726 C56.161148,23.614852 54.2770224,25.6802152 51.9942601,25.6802152 L51.9942601,25.6802152 L51.9942601,25.6802152 Z" id="Shape" fill="#CD1D1D"></path>
                    <path d="M85.7997489,14.4842332 C87.357704,13.0349058 88.3360717,11.0783139 88.3360717,8.9406278 C88.3360717,6.98403587 87.5751031,5.20868161 86.2707085,3.7955157 C84.8938475,2.30988341 82.5024574,1.40412556 79.2416143,1.40412556 L69.4949596,1.40412556 L69.4949596,30.0643587 L82.1039641,30.0643587 C86.9229058,29.9918924 90.8362332,26.3324126 90.8362332,21.8394978 C90.7999283,18.5785112 89.6404664,16.2597309 85.7997489,14.4842332 M80.9445022,25.1004843 L75.4733632,25.1004843 L75.4733632,6.54923767 L79.3140807,6.54923767 C80.9808072,6.54923767 82.3938296,7.81732735 82.3938296,9.52035874 C82.3938296,11.2232466 80.9808072,12.6001076 79.3140807,12.6001076 L77.2850224,12.6001076 L77.2850224,17.7813812 L81.0169686,17.7813812 C83.0460269,17.7813812 84.5678206,19.4481076 84.5678206,21.4771659 C84.4953543,23.5062242 83.1546547,24.9918565 80.9445022,25.1004843" id="Shape" fill="#CD1D1D"></path>
                    <path d="M26.4500807,19.0857758 C26.4500807,17.1654888 28.0080359,15.6073901 29.9284664,15.6073901 C31.8488969,15.6073901 33.406852,17.1654888 33.406852,19.0857758 L26.4500807,19.0857758 L26.4500807,19.0857758 Z M39.0590852,22.3467623 C39.0953901,21.9482691 39.1315516,21.5496323 39.1315516,21.1509955 C39.2040179,14.9551928 35.1459013,11.585435 29.9283229,11.585435 C24.7107444,11.585435 20.4715336,15.8609507 20.4715336,21.1509955 C20.4715336,26.4410404 24.7107444,30.7165561 29.9283229,30.7165561 C33.9139731,30.7165561 37.0300269,28.9048969 38.624287,26.0787085 L33.9864395,23.9410224 C33.4067085,25.2092556 32.0298475,26.1150135 30.3992825,26.1150135 C28.2615964,26.1150135 26.4860987,24.4844484 26.4860987,22.3467623 L39.0590852,22.3467623 L39.0590852,22.3467623 L39.0590852,22.3467623 Z" id="Shape" fill="#CD1D1D"></path>
                    <rect id="Rectangle-path" fill="#CD1D1D" x="113.590386" y="0.027264574" width="5.72498655" height="30.0370942"></rect>
                    <rect id="Rectangle-path" fill="#CD1D1D" x="123.337184" y="0.027264574" width="5.72484305" height="30.0370942"></rect>
                    <path d="M101.959605,59.2681614 C101.887139,59.0144574 101.923444,58.7247354 101.850834,58.4347265 C101.742206,57.9999283 101.271247,57.7462242 100.908915,57.6012915 C100.87261,57.4200538 100.836448,57.2752646 100.727677,57.1666368 C100.292879,56.8404664 99.8580807,56.5144395 99.4232825,56.224574 C98.9523229,56.1158027 98.6261525,56.514583 98.3001256,56.8043049 C98.1913543,56.8404664 98.1550493,56.6593722 98.082583,56.5869058 C97.9014888,56.1158027 97.7927175,55.5723767 97.5753184,55.1012735 C97.3216143,54.594009 96.7420269,54.6301704 96.2709238,54.6301704 C96.0898296,54.6301704 95.8724305,54.6301704 95.7274978,54.4490762 C95.7274978,54.0867444 95.9087354,53.760574 95.9448969,53.470852 C96.0536682,52.8911211 96.0536682,52.2026188 95.9448969,51.6953543 C96.1624395,51.6953543 96.3796951,51.7678206 96.6333991,51.7678206 C97.2855964,51.7678206 97.9016323,51.6591928 98.4450583,51.3693274 C99.3869776,50.8259013 100.039175,49.8836951 100.07548,48.7966996 C100.039175,48.2171121 99.8942422,47.7823139 99.6406816,47.2750493 C99.2060269,46.4054529 98.4450583,45.6446278 97.6840897,45.0285919 C98.1913543,44.9199641 98.6623139,44.8111928 99.0972556,44.5214709 C100.039175,43.9417399 100.256717,42.9272108 100.111785,41.9125381 C100.07548,41.5865112 100.039175,41.2241794 99.7494529,41.0429417 C99.3871211,40.861704 99.2784933,41.3689686 99.0609507,41.5139013 C98.626296,41.9486996 98.0102601,41.8762332 97.5029955,42.0574709 C96.5972377,42.3473363 95.4377758,42.9632287 95.1842152,44.0140628 C95.0029776,45.4272287 96.4523049,46.2603767 97.2857399,47.2387444 C97.6842332,47.7098475 98.08287,48.2171121 98.0104036,48.8693094 C97.9379372,49.1230135 97.7205381,49.3764305 97.4306726,49.4852018 C96.4524484,49.8112287 95.5103857,49.2678027 94.7131121,48.7966996 C93.3362511,47.8184753 91.8870673,46.8401076 90.1478744,46.659157 C89.2781345,46.5140807 88.6260807,45.9343498 87.901417,45.4633901 C87.2855247,45.1012018 86.6694888,44.8836592 85.98113,44.7748879 C85.4013991,44.7024215 85.0029058,44.1953004 84.5316592,43.9052915 C83.8433004,43.4704933 83.1186368,43.1443229 82.2853453,42.9995336 C81.9953363,42.8907623 81.6693094,42.8907623 81.4519103,42.6735067 C81.1619013,42.3111749 80.8721794,42.0213094 80.5098475,41.7677489 C79.8214888,41.2967892 78.9881973,41.0067803 78.082296,41.1155516 C77.6474978,41.2243229 77.2851659,41.5140448 76.8865291,41.8040538 L76.8865291,41.8402152 L76.8503677,41.7677489 C76.8430493,41.7730583 76.8354439,41.7790852 76.8282691,41.7843946 C74.2877848,38.2194798 70.1194619,35.8979731 65.4006816,35.8979731 C60.7725919,35.8979731 56.6741525,38.1315157 54.1214709,41.5810583 L53.8423677,41.441435 C53.4800359,41.2965022 53.0815426,41.2240359 52.6466009,41.1877309 C51.7045381,41.1515695 50.9074081,41.5137578 50.1827444,42.0573274 C48.9146547,42.8907623 47.3203946,42.8546009 46.1246278,43.9052915 C45.8709238,44.0865291 45.6536682,44.4850224 45.3274978,44.6299552 C44.928861,44.6662601 44.5303677,44.7024215 44.1317309,44.7748879 C43.2621345,44.9924305 42.5374709,45.5358565 41.8489686,46.1880538 C41.4504753,46.5140807 41.0156771,46.7316233 40.5084126,46.8402511 C39.3851121,46.8765561 38.3344215,47.1302601 37.4648251,47.7823139 C36.5590673,48.4706726 35.6170045,49.12287 34.6024753,49.5576682 C34.0589058,49.7752108 33.2980807,49.7752108 32.8632825,49.3402691 C32.4284843,48.9779372 32.3560179,48.4705291 32.5009507,47.9634081 C32.8269776,47.2749058 33.4791749,46.6951749 34.1313722,46.2242152 C34.9648072,45.5720179 35.6893274,44.7024215 35.3996054,43.5428161 C34.9285022,42.0571839 33.3342422,42.0571839 32.1386188,41.6586906 L31.8849148,41.5137578 C31.4501166,41.2963587 31.3051839,41.0427982 30.8342242,40.8615605 C30.6529865,40.7890942 30.5443587,40.8978655 30.4355874,41.0064933 C30.145722,41.5137578 30.0007892,42.0934888 30.145722,42.7095247 C30.3631211,43.6514439 31.3051839,44.4848789 32.2472466,44.6298117 C32.4646457,44.702278 32.7183498,44.6661166 32.9357489,44.738583 C32.2835516,45.2458475 31.6675157,45.8255785 31.1240897,46.4777758 C30.4357309,47.3112108 30.2544933,48.6879283 30.6892915,49.666296 C31.0879283,50.6806816 32.0661525,51.4779552 33.0806816,51.6228879 C33.7690404,51.7678206 34.4575426,51.6591928 35.1097399,51.586583 C35.1459013,52.4200179 35.2546726,53.2533094 35.6170045,53.9418117 L35.6531659,54.1592108 C35.3996054,54.4492197 35.0009686,54.594009 34.6386368,54.7026368 C34.3849327,54.7389417 34.0950673,54.6664753 33.8415067,54.7026368 C33.4791749,54.7026368 33.2979372,55.0649686 33.1530045,55.391139 C32.863139,55.8620987 33.0080717,56.4418296 32.4283408,56.6955336 L31.7761435,56.1521076 C31.1602511,55.8260807 30.652843,56.4058117 30.1818834,56.6593722 C29.9281794,56.8043049 29.7470852,57.0578655 29.7107803,57.3477309 C29.312287,57.5289686 28.9136502,57.7825291 28.7325561,58.1811659 C28.6239283,58.43487 28.6239283,58.7972018 28.5876233,59.0507623 C28.478852,59.2683049 28.2614529,59.4855605 28.2614529,59.7392646 C28.2977578,59.8841973 28.3339193,60.0652915 28.478852,60.2102242 C28.8411839,60.4277668 29.2398206,60.5362511 29.6383139,60.6450224 C29.855713,60.6813274 29.9643408,60.5362511 30.1455785,60.4637848 C30.7253094,60.6087175 31.4499731,60.7537937 32.029704,60.5725561 C32.609435,60.3913184 32.7905291,59.7391211 33.152861,59.3406278 C33.4427265,59.2681614 33.7325919,59.4493991 34.0224574,59.4493991 C34.529722,59.4130942 34.9282152,59.0146009 35.3993184,58.8333632 C35.6891839,58.6159641 35.9790493,58.3260987 36.2326099,58.1450045 C36.5224753,58.0362332 36.7398744,57.9999283 37.0660448,58.0362332 C37.8631749,58.1811659 38.8415426,58.3622601 39.5660628,57.9637668 C39.9645561,57.7462242 40.3270314,57.4201973 40.797991,57.3115695 C41.4501883,56.9855426 41.4863498,56.1882691 41.9212915,55.7173094 L42.211157,55.101417 C43.1532197,55.2463498 43.9503498,54.7027803 44.8924126,54.9201794 C45.9069417,55.101417 47.0664036,55.2823677 48.1172377,55.0289507 C48.2983318,55.2100448 48.5157309,55.3188161 48.6606637,55.5360717 C48.2983318,55.6085381 47.8998386,55.5723767 47.6461345,55.8620987 C47.0664036,55.6446996 46.4142063,55.8259372 45.8344753,55.8620987 C45.5084484,55.8620987 45.182278,56.0071749 45.0373453,56.2968969 C44.9648789,56.4781345 44.9648789,56.7316951 45.0373453,56.9129327 L45.8344753,58.2534888 C45.9432466,58.3622601 46.0518744,58.5071928 46.2331121,58.5434978 C46.4505112,58.6159641 46.7040717,58.5434978 46.8853094,58.6159641 C47.0664036,58.941991 47.2476413,59.2681614 47.5736682,59.521722 C47.9721614,59.8477489 48.5881973,59.9563767 49.1316233,59.8477489 C50.0736861,59.521722 50.9794439,59.231713 51.8853453,58.8332197 L53.0448072,58.688287 C53.4433004,58.5433543 53.6606996,58.1447175 53.8056323,57.8186906 C53.8056323,57.8186906 53.8080717,57.8145291 53.8116592,57.8080717 C56.3347803,61.5055785 60.5801614,63.9420269 65.4001076,63.9420269 C70.1594978,63.9420269 74.3585291,61.5799103 76.8924126,57.9627623 C76.9361794,58.0426906 76.9818117,58.1177399 77.0310314,58.1810224 C77.0671928,58.2897937 77.1759641,58.5433543 77.2847354,58.6158206 C77.5021345,58.9056861 77.9730942,58.7970583 78.2991211,58.7970583 C78.5165202,58.941991 78.7339193,59.1955516 78.9876233,59.2680179 C79.7485919,59.485417 80.5092735,59.7028161 81.2702422,59.9565202 C81.4876413,60.0289865 81.7775067,60.065148 82.0312108,60.0289865 C82.6471031,59.8840538 83.263139,59.3404843 83.4080717,58.688287 C83.4443767,58.434583 83.7704036,58.6158206 83.8790314,58.4708879 C84.3138296,58.1085561 84.4950673,57.601148 84.8210942,57.1664933 C84.9298655,57.021417 84.9298655,56.8041614 84.8572556,56.6229238 C84.7847892,56.477991 84.6398565,56.3330583 84.4950673,56.2968969 C83.8790314,56.1519641 83.1182063,56.2607354 82.466009,56.1882691 L82.3209327,56.0431928 C82.176,55.8982601 81.9949058,55.8982601 81.8136682,55.8620987 L82.2123049,55.5720897 C83.009435,55.6083946 83.8427265,55.5357848 84.6035516,55.390852 C85.2195874,55.2459193 85.8356233,55.137148 86.4878206,55.1734529 C87.2849507,55.2096143 88.1544036,55.3183857 88.9516771,55.137148 C89.1690762,55.8981166 89.1690762,56.6227803 89.7488072,57.2388161 C90.1473004,57.7822422 90.7270314,57.9634798 91.2344395,58.3256682 C91.7778655,58.5432108 92.4300628,58.398278 92.9736323,58.2895067 C94.2055605,58.2532018 95.1111749,58.941704 96.0170762,59.6302063 C96.4518744,59.9200717 97.0679103,59.775139 97.5027085,59.5575964 C97.6839462,59.8476054 97.8650404,60.1011659 98.1187444,60.318565 C98.6984753,60.8258296 99.5680717,60.608574 100.292592,60.6445919 C100.401363,60.7533632 100.510135,60.8258296 100.618619,60.8258296 L101.995623,60.3910314 L102.140556,60.2824036 C102.358242,59.9203587 102.068377,59.5580269 101.959605,59.2681614 L101.959605,59.2681614 L101.959605,59.2681614 Z M30.1821704,58.6159641 C30.0009327,59.0507623 29.8923049,59.5578834 29.7473722,60.0652915 C29.4213453,60.02913 29.1314798,59.9203587 28.8777758,59.8115874 C28.8053094,59.7391211 28.8777758,59.6666547 28.8777758,59.5941883 C29.2039462,59.3041794 29.0951749,58.941991 29.1677848,58.5434978 C29.2039462,58.3259552 29.4213453,58.1450045 29.6387444,58.0362332 C29.8924484,58.0723946 30.0372377,58.3260987 30.1823139,58.5071928 L30.1823139,58.6159641 L30.1821704,58.6159641 L30.1821704,58.6159641 Z M30.3632646,57.2754081 C30.65313,57.0941704 30.9429955,56.9132197 31.232861,56.6595157 C31.3053274,56.6232108 31.4502601,56.5870493 31.486565,56.6595157 C31.6314978,56.7681435 31.7402691,56.8406099 31.7764305,56.9855426 C31.5951928,57.3477309 31.3416323,57.7826726 30.9429955,57.9999283 C30.7980628,58.0362332 30.6169686,58.0362332 30.4720359,57.9637668 C30.3995695,57.8913004 30.2546368,57.8188341 30.2546368,57.6737578 C30.2907982,57.5289686 30.2183318,57.3478744 30.3632646,57.2754081 L30.3632646,57.2754081 L30.3632646,57.2754081 Z M48.1898475,56.2970404 L48.2984753,56.224574 C48.6971121,56.224574 49.0956054,56.224574 49.4942422,56.1521076 C49.8927354,56.1158027 49.7841076,56.5869058 49.9290404,56.8404664 C49.9652018,56.9855426 50.1826009,57.1664933 50.0376682,57.3115695 C49.7478027,57.5289686 49.4217758,57.6737578 49.023139,57.6375964 C48.7332735,57.4200538 48.769435,57.0215605 48.5158744,56.7318386 C48.4435516,56.5144395 48.1173812,56.5144395 48.1898475,56.2970404 L48.1898475,56.2970404 L48.1898475,56.2970404 Z M64.386009,56.9492377 L64.3135426,57.021704 C63.4077848,57.1666368 62.7192825,56.6232108 62.2481794,55.9710135 C61.9581704,55.3912825 61.5596771,54.7753901 60.9074798,54.5216861 C60.8713184,54.5216861 60.8350135,54.5578475 60.8350135,54.5578475 C60.9074798,54.7753901 61.1250224,54.9201794 61.1973453,55.101417 C61.4510493,55.4999103 61.6683049,55.934852 61.7770762,56.3695067 C61.922009,56.8404664 62.4292735,57.1667803 62.8277668,57.4201973 L63.4074978,57.7102063 C63.4799641,57.7463677 63.5161256,57.855139 63.4436592,57.9276054 L63.3711928,57.9639103 C62.3929686,58.0000717 61.5233722,57.6739013 60.83487,56.9493812 C60.6899372,56.7681435 60.4726816,56.6233543 60.2189776,56.6233543 C59.7841794,57.0218475 59.3493812,57.3843229 58.7696502,57.4204843 C58.1537578,57.3118565 57.501417,57.3118565 56.957991,57.5292556 C56.4507265,57.7104933 55.9434619,57.9277489 55.4000359,57.9277489 C55.1463318,57.9277489 54.8564664,57.8191211 54.7478386,57.5655605 C54.7478386,57.2395336 54.5304395,56.8770583 54.7116771,56.5510314 L55.074009,56.0076054 C55.074009,55.935139 55.0378475,55.8625291 54.9653812,55.8625291 C54.8204484,55.8263677 54.5668879,56.0800717 54.4944215,55.8263677 C54.530583,55.2827982 55.0741525,54.9206099 55.4364843,54.5581345 C55.5089507,54.1234798 55.6901883,53.7246996 56.0162152,53.3625112 C56.0162152,53.3262063 55.9799103,53.2537399 55.9074439,53.2537399 C55.4364843,53.3262063 54.9653812,53.4349776 54.4581166,53.4349776 C54.0594798,53.6523767 53.5523587,53.7973094 53.0812556,53.6523767 C52.9726278,53.5799103 53.0087892,53.4712825 53.0450942,53.3986726 C53.5523587,52.7103139 53.7334529,51.8407175 53.5886637,51.007426 C53.5525022,50.9711211 53.5525022,50.8986547 53.4798924,50.8986547 C53.407426,50.8986547 53.407426,50.9711211 53.3712646,51.007426 C53.2626368,51.8045561 53.0089327,52.4204484 52.5741345,53.1089507 C52.2481076,53.4349776 51.740843,53.4349776 51.3060448,53.5437489 C51.197417,53.5799103 51.0886457,53.6886816 51.0886457,53.7974529 C51.0886457,54.0873184 51.2697399,54.2684126 51.3785112,54.5221166 L52.320574,56.2613094 C52.3567354,56.7322691 52.1393363,57.2032287 52.0307085,57.6381704 C52.06687,57.7106368 52.1393363,57.6743318 52.2118027,57.6381704 C52.5378296,57.3481614 52.7553722,56.9496682 52.9001614,56.5150135 C52.9364664,56.3337758 52.864,56.1163767 52.7915336,55.9714439 L51.8133094,54.014852 C51.8857758,53.9060807 52.0307085,53.9060807 52.1393363,53.8699193 C52.3567354,53.8699193 52.5741345,53.9785471 52.7915336,54.051157 C53.0089327,54.6307444 53.2626368,55.2467803 53.66113,55.7540448 C53.7335964,56.0800717 53.8422242,56.5150135 53.6249686,56.7684305 C53.4075695,57.2032287 53.1901704,57.565704 52.9003049,57.9641973 C52.6467444,58.2179013 52.2844126,58.1815964 51.9220807,58.2179013 L51.8134529,58.2179013 C50.9438565,58.688861 50.0379552,58.97887 49.0958924,59.2685919 C48.6973991,59.4498296 48.226296,59.3048969 47.9001256,59.0511928 C47.5739552,58.7974888 47.4290224,58.435157 47.2117668,58.10913 C46.9580628,57.7831031 46.5595695,58.0728251 46.269704,57.8917309 C46.016,57.4932377 45.7624395,57.0944574 45.5450404,56.6598027 C45.5450404,56.5510314 45.5450404,56.4422601 45.6538117,56.3697937 C45.9798386,56.2611659 46.3421704,56.2611659 46.7045022,56.224861 C47.0305291,56.1885561 47.392861,56.2611659 47.6102601,56.478565 C48.0450583,56.9858296 48.2261525,57.6741883 48.8783498,58.0002152 C49.3856143,58.0365202 49.8204126,57.8915874 50.2552108,57.6741883 C50.5089148,57.5292556 50.7986368,57.312 50.7986368,56.9858296 C50.7624753,56.3336323 50.3276771,55.8263677 49.7841076,55.4640359 C49.2405381,55.1741704 48.6608072,54.7756771 48.2623139,54.2684126 C48.0449148,53.9784036 48.0086099,53.6523767 47.8999821,53.3626547 C47.8638206,53.2901883 47.7188879,53.2901883 47.682583,53.3263498 C47.4651839,53.5075874 47.6464215,53.8336143 47.6464215,54.051157 C47.682583,54.1960897 47.7551928,54.3770404 47.682583,54.4858117 C47.3565561,54.7395157 46.9217578,54.594583 46.5231211,54.6307444 C45.725991,54.594583 44.9651659,54.2685561 44.1317309,54.3408789 C43.3346009,54.3770404 42.2476054,54.9206099 41.6678744,54.1234798 C41.378009,53.3625112 41.4504753,52.4567534 41.5954081,51.6957848 C41.5954081,51.6233184 41.5229417,51.550852 41.4504753,51.550852 C41.378009,51.5145471 41.3055426,51.550852 41.2693812,51.6233184 C41.0519821,52.384287 41.0156771,53.2175785 40.834583,54.0147085 C40.5447175,54.7032108 40.0374529,55.4278744 39.3489507,55.7900628 C38.7330583,56.1160897 38.0083946,56.224861 37.247426,56.2973274 C35.870565,56.3336323 34.6023318,56.5873363 33.7327354,57.7829596 C33.6602691,57.8917309 33.5516413,58.0003587 33.5878027,58.1452915 C33.6239641,58.1814529 33.7327354,58.2177578 33.7688969,58.1814529 C34.7109596,57.1307623 35.906583,56.6958206 37.2835874,56.768287 C38.5879821,56.768287 39.8923767,56.5508879 40.7256682,55.4277309 C40.9430673,55.1740269 41.088,54.9204664 41.2692377,54.6304574 C41.4141704,54.6304574 41.5227982,54.8116951 41.6315695,54.8841614 C41.6677309,55.2826547 41.341704,55.5363587 41.1967713,55.8623857 C41.0156771,56.2247175 40.8344395,56.6596592 40.4721076,56.8769148 C40.0373094,56.9856861 39.6749776,57.2754081 39.2763408,57.4929507 C38.8778475,57.6740448 38.370583,57.7465112 37.8994798,57.6378834 C37.3197489,57.5291121 36.5226188,57.3841794 35.9428879,57.6378834 C35.6530224,57.8191211 35.3994619,58.145148 35.1095964,58.3262422 C34.7109596,58.5074798 34.3486278,58.8335067 33.8776682,58.7973453 C33.5516413,58.7248789 33.1530045,58.5073363 32.863139,58.7973453 C32.5008072,59.1233722 32.4283408,59.7031031 31.9573812,59.9205022 C31.4139552,60.2103677 30.8342242,59.9205022 30.2906547,59.8841973 C30.3631211,59.3407713 30.4355874,58.8335067 30.7979193,58.43487 C31.0153184,58.398565 31.1964126,58.3624036 31.3776502,58.2174709 C31.5950493,58.0362332 31.7399821,57.7826726 31.8849148,57.5289686 C32.3560179,57.2391031 32.8994439,57.021704 33.1893094,56.5144395 C33.4067085,56.0434798 33.4067085,55.6086816 33.7690404,55.1738834 L33.950278,55.101417 L34.9285022,55.0289507 C35.3269955,54.847713 35.6893274,54.6666188 36.0518027,54.3766099 C36.1604305,54.2679821 36.1967354,54.0867444 36.1604305,53.9056502 C35.9791928,53.4346906 35.8344036,53.1085202 35.7256323,52.6012556 C35.616861,52.093991 35.6893274,51.5867265 35.616861,51.007139 C35.5806996,50.9708341 35.5443946,50.8620628 35.4719283,50.8620628 C34.8197309,51.007139 34.2038386,51.1880897 33.4790314,51.0796054 C32.5008072,50.9708341 31.486278,50.3186368 31.1239462,49.3404126 C30.7979193,48.5069776 30.8702422,47.3113543 31.486278,46.622852 C32.066009,45.8981883 32.7906726,45.3546188 33.5153363,44.7387265 C33.6241076,44.6662601 33.6241076,44.5213274 33.6602691,44.4126996 C33.6602691,44.2677668 33.5153363,44.1589955 33.406565,44.0866726 C32.9717668,43.9779013 32.4645022,44.1228341 32.029704,43.9417399 C31.2687354,43.6880359 30.6890045,42.9635157 30.5803767,42.1662422 C30.5442152,41.8040538 30.6165381,41.5140448 30.7977758,41.2243229 C31.3775067,41.7315874 31.8123049,42.1662422 32.3557309,42.3111749 C33.2253274,42.5287175 34.1673901,42.5287175 34.8195874,43.2169327 C35.1819193,43.6517309 35.2180807,44.4126996 34.9282152,44.8474978 C34.4209507,45.7170942 33.4064215,46.1518924 32.7905291,46.9127175 C32.1746368,47.4199821 31.9572377,48.2172556 32.1383318,49.0143857 C32.3557309,49.7027444 33.0440897,50.1738475 33.7325919,50.210009 C34.8195874,50.2463139 35.6167175,49.7027444 36.4863139,49.1956233 C37.3559103,48.5795874 38.1530404,47.7824574 39.1314081,47.5288969 C39.7836054,47.3114978 40.5082691,47.4201256 41.1604664,47.166565 C41.8488251,47.0216323 42.3923946,46.4419013 42.9359641,45.9346368 C43.5518565,45.4273722 44.2765202,45.1375067 45.0736502,45.1738117 C45.7983139,45.2824395 46.1969507,44.6302422 46.7040717,44.1955874 C47.5375067,43.4346188 48.6243587,43.3621525 49.6027265,42.9273543 C50.2910852,42.7099552 50.8346547,42.2026906 51.486852,41.8766637 C52.1027444,41.6229596 52.9361794,41.5506368 53.5520717,41.8041973 C53.9507085,41.9852915 54.3855067,42.1663857 54.7478386,42.4563946 L57.6827982,44.9202511 C57.7189596,45.0288789 57.8277309,45.1013453 57.9001973,45.1376502 C58.7334888,46.1521794 59.6030852,47.1305471 60.2915874,48.253704 C60.5089865,48.6521973 60.6177578,49.0508341 60.7263857,49.4856323 C60.8714619,51.1523587 61.3061166,52.6016861 61.8496861,54.05087 C61.9946188,54.2684126 62.2843408,54.4495067 62.429417,54.6669058 C62.9003767,55.3191031 63.1902422,56.1525381 63.9510673,56.5873363 L64.3858655,56.8047354 C64.4221704,56.8404664 64.4221704,56.9130762 64.386009,56.9492377 L64.386009,56.9492377 L64.386009,56.9492377 Z M81.8504036,56.4419731 C81.8140987,56.8043049 81.7054709,57.1304753 81.5605381,57.4565022 C81.4517668,57.6739013 81.1257399,57.601435 80.9081973,57.5652735 C80.6907982,57.4928072 80.3284664,57.4565022 80.2923049,57.1304753 C80.256,56.8404664 80.4010762,56.5507444 80.546009,56.3333453 C80.8720359,56.2970404 81.2706726,56.3695067 81.5966996,56.2970404 C81.7416323,56.2970404 81.8504036,56.3333453 81.8504036,56.4419731 L81.8504036,56.4419731 L81.8504036,56.4419731 Z M99.8943857,60.1377578 C99.3871211,60.1377578 98.6987623,60.2828341 98.3364305,59.9203587 C97.9017758,59.6303498 97.7566996,58.8333632 97.1045022,59.0507623 C96.8146368,59.2681614 96.4161435,59.3406278 96.0901166,59.1956951 C95.7640897,59.0869238 95.5465471,58.7972018 95.2566816,58.6159641 C94.3869417,57.9637668 93.2276233,57.6377399 92.1043229,57.8913004 C91.4521256,58.0723946 90.944861,57.6012915 90.4375964,57.3115695 C89.7492377,57.0215605 89.568,56.2970404 89.4232108,55.681148 L89.3144395,54.9201794 C89.3144395,54.847713 89.3869058,54.7752466 89.4593722,54.7389417 L89.5681435,54.7389417 C89.9666368,55.6446996 90.7276054,56.6593722 91.7058296,56.9853991 C92.6115874,57.3475874 93.4450224,56.8766278 94.4233901,57.0578655 C95.329148,57.1664933 96.0538117,57.7462242 96.7423139,58.2897937 C96.8147803,58.2897937 96.8509417,58.2534888 96.8872466,58.1810224 L96.8872466,58.1085561 C96.0538117,57.0578655 94.8943498,56.514296 93.5537937,56.6229238 C92.4306368,56.8403229 91.3436413,56.477991 90.6914439,55.5359283 C90.3292556,54.9925022 90.0755516,54.4127713 89.9667803,53.7967354 C89.8581525,53.0720717 89.7130762,52.2750852 89.4595157,51.6228879 C89.3870493,51.586583 89.314583,51.5141166 89.2421166,51.5504215 L89.1693632,51.6591928 C89.2781345,52.3476951 89.4953901,53.1809865 89.2418296,53.9056502 C89.0605919,54.4853812 88.480861,54.7027803 87.937435,54.7390852 C87.394009,54.7753901 86.8867444,54.6666188 86.3070135,54.6666188 C85.0026188,54.6303139 83.843157,55.1375785 82.5024574,55.0288072 C82.6112287,54.7027803 82.8284843,54.3766099 82.7198565,54.0144215 C82.6836951,53.9419552 82.5749238,53.9419552 82.5024574,53.9419552 C82.2487534,54.0868879 82.2850583,54.4129148 82.1401256,54.6303139 C81.8502601,55.101417 81.3068341,55.5360717 80.7632646,55.644843 C80.3647713,55.9347085 80.0024395,56.3333453 79.6762691,56.6955336 C79.5676413,56.8043049 79.5676413,57.0215605 79.6038027,57.1664933 C79.8575067,57.8186906 80.6183318,57.8913004 81.1980628,58.0722511 C81.4879283,58.1085561 81.7414888,57.9997848 81.886565,57.7462242 C82.1401256,57.3477309 82.1764305,56.6955336 82.7561614,56.6230673 L84.0243946,56.6230673 C84.1330224,56.6593722 84.2054888,56.7318386 84.2779552,56.8404664 L84.2417937,57.021704 C83.9517848,57.3477309 83.8433004,57.8188341 83.4808251,58.0362332 C83.263426,58.1086996 83.0098655,58.0362332 82.8649327,58.2174709 C82.7923229,58.6521256 82.6836951,59.1232287 82.2488969,59.3406278 C81.92287,59.6304933 81.4517668,59.4855605 81.089435,59.3769327 C80.4010762,59.1232287 79.712574,58.978296 79.0240717,58.7608969 C78.7342063,58.6884305 78.6255785,58.3260987 78.2994081,58.2536323 C78.0095426,58.1811659 77.6835157,58.398565 77.4298117,58.1450045 C77.2848789,57.8189776 77.2122691,57.601435 77.1398027,57.2392466 C77.0311749,57.021704 76.9587085,56.7681435 76.9224036,56.5144395 C76.8860987,56.2970404 76.9224036,56.1522511 76.99487,55.9710135 L77.9369327,54.2681256 C78.0093991,54.1593543 78.0818655,54.050583 78.1906368,54.0144215 C78.4080359,54.050583 78.6615964,54.1593543 78.8789955,54.2681256 L78.8428341,54.3767534 L77.8644664,55.8623857 C77.6470673,56.3334888 77.8644664,56.8769148 78.082009,57.2755516 C78.1181704,57.3118565 78.1544753,57.3843229 78.1907803,57.3480179 C78.1544753,57.0581525 78.1181704,56.768287 78.1907803,56.4422601 C78.2632466,56.1523946 78.4443408,55.8988341 78.5892735,55.64513 L79.3500987,54.5219731 C79.4227085,54.3407354 79.4227085,54.05087 79.2776323,53.8697758 C78.9516054,53.5437489 78.4805022,53.4349776 78.1907803,53.0000359 C77.5747444,52.1666009 77.502278,51.1883767 77.4298117,50.1376861 C77.4298117,50.0652197 77.3573453,49.9564484 77.248574,49.920287 C77.1761076,49.8839821 77.1036413,49.9927534 77.0673363,50.0289148 C76.8860987,50.717417 76.99487,51.5507085 77.1761076,52.1666009 C77.2848789,52.637704 77.5021345,53.1086637 77.7195336,53.5436054 C77.7558386,53.6160717 77.6833722,53.7246996 77.6109058,53.7610045 C77.1036413,53.7973094 76.5963767,53.7610045 76.1252735,53.6885381 C75.4730762,53.5797668 75.0019731,53.0725022 74.4585471,52.674009 C74.3860807,52.6378475 74.3497758,52.7103139 74.3136143,52.7464753 C74.4585471,53.471139 75.2555336,53.9059372 75.5092377,54.5581345 C75.6541704,55.101704 76.1977399,55.5001973 76.3063677,56.0799283 C76.3063677,56.1523946 76.2339013,56.2611659 76.161435,56.2973274 C75.9801973,56.3336323 75.7992466,56.224861 75.618009,56.3336323 C75.581704,56.6596592 75.7992466,56.9858296 75.6541704,57.2755516 C75.4730762,57.5655605 75.2195157,57.8915874 74.8933453,57.8915874 C74.241148,57.6740448 73.5889507,57.3843229 72.9367534,57.2030852 C72.4656502,57.1669238 71.9946906,57.2393901 71.5597489,57.2755516 C71.1250942,57.2030852 70.8350852,56.8045919 70.5090583,56.5871928 C70.400287,56.5508879 70.2916592,56.5508879 70.2191928,56.6233543 C69.4945291,57.3480179 68.6973991,58.145148 67.6102601,58.1089865 C67.5377937,58.1089865 67.5016323,58.0365202 67.5016323,57.9640538 L67.5016323,57.8915874 C67.9725919,57.4567892 68.5523229,57.0218475 68.769722,56.4059552 C68.9146547,55.8986906 69.3494529,55.5362152 69.5306906,55.0652556 C69.5669955,54.9927892 69.4945291,54.9566278 69.4219193,54.9203229 L69.3132915,54.9927892 C68.769722,55.5362152 68.3712287,56.1522511 67.9725919,56.7319821 C67.5740987,57.1304753 66.9943677,57.3841794 66.3784753,57.2392466 C66.3058655,57.2029417 66.3058655,57.0941704 66.3421704,57.021704 C68.5886278,55.644843 68.8421883,53.1809865 69.4582242,50.9345291 C69.8930224,49.4490404 70.2191928,47.9272466 71.3786547,46.7316233 C73.117704,44.8111928 75.2918386,43.6880359 77.2119821,42.0213094 C77.501991,41.7676054 77.7918565,41.5140448 78.1540448,41.5140448 C79.0961076,41.4415785 79.8207713,41.8040538 80.4729686,42.3474798 C80.8714619,42.6011839 81.0163946,43.1446099 81.4873543,43.2532377 C82.2846278,43.4344753 83.0816143,43.6155695 83.806278,43.9779013 C84.3135426,44.2316054 84.7845022,44.5939372 85.2556054,44.9924305 C85.6904036,45.2098296 86.2339731,45.2098296 86.7050762,45.3546188 C87.393435,45.5358565 87.9370045,46.0431211 88.5528969,46.4416143 C89.3501704,47.0576502 90.4733274,46.9851839 91.3790852,47.3836771 C92.8284126,47.8546368 93.9878744,48.9777937 95.3284305,49.629991 C96.0167892,49.9923229 97.0676233,50.1372556 97.7559821,49.7387623 C98.2269417,49.4127354 98.5169507,48.9777937 98.4081794,48.3619013 C98.1544753,46.8762691 96.5240538,46.1154439 95.7632287,44.8835157 C95.6181525,44.5936502 95.5095247,44.195157 95.581991,43.8689865 C95.8718565,43.1443229 96.6326816,42.7458296 97.2848789,42.4921256 C97.7921435,42.2384215 98.4443408,42.3108879 98.9153004,42.0211659 C99.0965381,41.9123946 99.2413274,41.7674619 99.3500987,41.6588341 C99.45887,41.6588341 99.45887,41.7676054 99.4950314,41.8400717 C99.6399641,42.7098117 99.4950314,43.6155695 98.7340628,44.1226906 C98.4441973,44.3402332 98.0818655,44.4126996 97.7558386,44.4850224 C97.4659731,44.5937937 96.8862422,44.3762511 96.9224036,44.8835157 C96.9950135,45.1372197 97.2124126,45.282009 97.3935067,45.4632466 C98.4078924,46.2966816 99.3500987,47.3836771 99.45887,48.6880717 C99.4950314,49.7024574 98.8066726,50.5721973 97.9370762,51.006852 C97.2848789,51.2605561 96.4877489,51.3691839 95.7993901,51.1880897 C95.6181525,51.1519283 95.3284305,50.9706906 95.1834978,51.2243946 C95.1471928,51.5142601 95.3284305,51.7316592 95.3284305,51.9853632 C95.4008969,52.4563229 95.4008969,53.0722152 95.2559641,53.5433184 C95.1834978,53.9055067 94.8211659,54.3404484 95.1471928,54.7027803 C95.4732197,55.2099013 96.125417,55.0649686 96.668843,55.137435 C96.958852,55.1737399 97.0674798,55.4997668 97.1399462,55.7171659 C97.248574,56.0071749 97.248574,56.3332018 97.3573453,56.5506009 C97.3573453,57.0940269 97.9733812,57.3115695 98.2631031,57.6737578 C98.625435,58.0723946 98.9516054,58.7607534 99.5674978,58.7245919 C99.7850404,59.1592466 99.8935247,59.5578834 99.965991,60.065148 L99.8943857,60.1377578 L99.8943857,60.1377578 Z M100.07548,57.8914439 C99.9667085,58.0000717 99.8217758,58.0725381 99.6406816,58.0725381 C99.4595874,58.0725381 99.3146547,57.9639103 99.2060269,57.8189776 C99.0247892,57.5289686 98.7712287,57.2754081 98.6987623,56.9855426 C98.8073901,56.8043049 99.0609507,56.5144395 99.3146547,56.7318386 C99.6046637,56.9855426 100.003157,57.1664933 100.220413,57.4928072 C100.256717,57.6377399 100.147946,57.7826726 100.07548,57.8914439 L100.07548,57.8914439 L100.07548,57.8914439 Z M101.524807,59.9203587 L100.727677,60.1740628 C100.582744,60.1740628 100.655211,59.9928251 100.582744,59.9203587 C100.510278,59.4493991 100.401507,59.1232287 100.256717,58.6884305 C100.220413,58.4347265 100.474117,58.2536323 100.655211,58.1086996 C100.836448,58.0362332 100.981238,58.2536323 101.162475,58.3624036 C101.343713,58.6161076 101.271103,59.0146009 101.343713,59.3043229 C101.379874,59.5218655 101.669883,59.7031031 101.524807,59.9203587 L101.524807,59.9203587 L101.524807,59.9203587 Z" id="Shape" fill="#CD1D1D"></path>
                    <g id="Group" transform="translate(52.950673, 45.488789)" fill="#E02424">
                        <path d="M0.819085202,0.663103139 C1.0364843,1.20652915 1.0364843,1.93119283 0.89155157,2.51092377 C0.855390135,2.5472287 0.819085202,2.5472287 0.782923767,2.51092377 C0.674295964,2.00365919 0.565524664,1.49653812 0.384430493,0.989273543 C0.275659193,0.699264574 -0.0866726457,0.445704036 0.0582600897,0.119533632 C0.130726457,0.0470672646 0.275659193,0.0470672646 0.384430493,0.0833721973 C0.565381166,0.264609865 0.674152466,0.445560538 0.819085202,0.663103139" id="Shape"></path>
                        <path d="M6.61639462,5.73574888 C7.01488789,6.20670852 7.30475336,6.71397309 7.15996413,7.32986547 C7.08749776,7.43863677 7.12365919,7.65589238 6.94256502,7.69219731 C6.87009865,7.72850224 6.79763229,7.65589238 6.79763229,7.58342601 C6.76147085,7.2573991 6.76147085,6.89506726 6.58023318,6.64150673 C6.36283408,6.42396413 6.10913004,5.98930942 5.74679821,5.98930942 C5.49309417,6.06177578 5.312,6.35149776 5.16706726,6.53273543 C5.16706726,6.56904036 5.13090583,6.56904036 5.0946009,6.53273543 C4.94966816,6.17054709 5.23953363,5.88053812 5.34830493,5.59081614 C5.56570404,5.37327354 5.5293991,4.75738117 6.00050224,4.93861883 C6.32652915,5.15601794 6.39899552,5.51820628 6.61639462,5.73574888" id="Shape"></path>
                        <path d="M5.85542601,10.047426 C5.89158744,10.2649686 5.89158744,10.5909955 5.67433184,10.7359283 C5.45693274,10.8083946 5.16706726,10.8446996 4.91336323,10.8083946 C4.84089686,10.7720897 4.76843049,10.7359283 4.80473543,10.6634619 C4.91336323,10.337435 5.23953363,9.97495964 5.60186547,9.90249327 C5.67433184,9.90249327 5.81926457,9.90249327 5.85542601,10.047426" id="Shape"></path>
                    </g>
                    <g id="Group" transform="translate(70.744395, 44.484305)" fill="#E02424">
                        <path d="M2.08387444,6.45022422 C2.30127354,6.74023318 2.48236771,7.02995516 2.62730045,7.392287 C2.66360538,7.46475336 2.62730045,7.53721973 2.59113901,7.6096861 C2.55483408,7.68215247 2.48236771,7.75476233 2.37359641,7.68215247 C2.11989238,7.6096861 2.15619731,7.21119283 1.8301704,7.24749776 C1.6127713,7.24749776 1.46783857,7.42859193 1.28674439,7.53736323 C0.960717489,7.8273722 0.525775785,8.11709417 0.453309417,8.55189238 C0.380843049,8.69682511 0.417004484,8.95038565 0.272071749,9.02285202 C0.199605381,9.05915695 0.0908340807,8.98669058 0.0908340807,8.91408072 C0.0546726457,8.33434978 0.235766816,7.79092377 0.63426009,7.39243049 C1.03289686,7.06640359 1.32276233,6.59530045 1.64878924,6.19680717 C1.86661883,6.16050224 2.01155157,6.30529148 2.08387444,6.45022422" id="Shape"></path>
                        <path d="M2.22880717,11.2693094 C2.30127354,11.4142422 2.44620628,11.5953363 2.33757848,11.776574 C2.19264574,11.8852018 1.9390852,11.8127354 1.75784753,11.8127354 C1.54030493,11.7039641 1.46783857,11.4142422 1.46783857,11.1605381 C1.46783857,11.0880717 1.46783857,11.0517668 1.54030493,10.9793004 C1.79400897,10.9794439 2.047713,11.0519103 2.22880717,11.2693094" id="Shape"></path>
                        <path d="M7.66378475,0.182098655 C7.77255605,0.32703139 7.66378475,0.471964126 7.59131839,0.580591928 C7.08405381,1.05155157 6.46801794,1.55881614 6.1056861,2.13854709 C5.96075336,2.31978475 5.85198206,2.53704036 5.77965919,2.75443946 C5.77965919,2.79074439 5.74335426,2.79074439 5.70719283,2.79074439 C5.59842152,2.50073543 5.74335426,2.17470852 5.81582063,1.88498655 C6.06952466,1.1964843 6.64925561,0.544286996 7.26529148,0.0733273543 C7.33775785,0.0371659193 7.59131839,0.000860986547 7.66378475,0.182098655" id="Shape"></path>
                    </g>
                </g>
            </g>
        </g>
    </g>
</svg>