<?xml version="1.0" encoding="UTF-8" standalone="no"?>
<svg width="49px" height="64px" viewBox="0 0 49 64" version="1.1" xmlns="http://www.w3.org/2000/svg" xmlns:xlink="http://www.w3.org/1999/xlink" xmlns:sketch="http://www.bohemiancoding.com/sketch/ns">
    <!-- Generator: Sketch 3.3.2 (12043) - http://www.bohemiancoding.com/sketch -->
    <title>untapit</title>
    <desc>Created with Sketch.</desc>
    <defs>
        <rect id="path-1" x="0.47895082" y="0.243934426" width="47.9742951" height="63.6144262"></rect>
    </defs>
    <g id="Page-1" stroke="none" stroke-width="1" fill="none" fill-rule="evenodd" sketch:type="MSPage">
        <g id="untapit" sketch:type="MSLayerGroup">
            <g id="Clipped">
                <mask id="mask-2" sketch:name="SVGID_1_" fill="white">
                    <use xlink:href="#path-1"></use>
                </mask>
                <g id="SVGID_1_"></g>
                <path d="M0.47895082,0.242885246 L0.47895082,48.0514098 L48.2869508,48.0514098 L48.2869508,0.242885246 L0.47895082,0.242885246 Z M36.7994754,29.716459 C36.7994754,31.4040656 36.4731803,32.9222295 35.8226885,34.2672787 C35.1716721,35.616 34.2903607,36.7480656 33.1808525,37.6650492 C32.0713443,38.583082 30.7666885,39.2855082 29.2731803,39.7754754 C27.7791475,40.2622951 26.1870164,40.5072787 24.4994098,40.5072787 C22.8128525,40.5072787 21.2201967,40.2622951 19.7256393,39.7754754 C18.2326557,39.2849836 16.9290492,38.583082 15.8190164,37.6650492 C14.7095082,36.7480656 13.835541,35.6228197 13.1981639,34.2898361 C12.5628852,32.9579016 12.244459,31.4334426 12.244459,29.716459 L12.244459,8.90281967 L19.127082,8.90281967 L19.127082,29.2285902 C19.127082,30.9140984 19.6222951,32.2255738 20.6153443,33.1582951 C21.6052459,34.091541 22.9314098,34.5568525 24.5885902,34.5568525 C26.2163934,34.5568525 27.5336393,34.091541 28.5408525,33.1582951 C29.5470164,32.2255738 30.0500984,30.9140984 30.0500984,29.2285902 L30.0500984,8.90281967 L36.7994754,8.90281967 L36.7994754,29.716459 L36.7994754,29.716459 Z M14.2903607,53.5512131 C14.7294426,53.9682623 14.9492459,54.5531803 14.9492459,55.3043934 L14.9492459,60.2397377 L12.6305574,60.2397377 L12.6305574,55.8851148 C12.6305574,55.6228197 12.5455738,55.3956721 12.3745574,55.2031475 C12.2024918,55.0100984 11.9401967,54.9125246 11.5887213,54.9125246 C11.2472131,54.9125246 10.9749508,55.0100984 10.7714098,55.2031475 C10.5699672,55.3956721 10.4697705,55.6338361 10.4697705,55.915541 L10.4697705,60.2392131 L8.1495082,60.2392131 L8.1495082,53.143082 L10.2793443,53.143082 L10.2793443,54.0988852 L10.2956066,54.0988852 C10.4414426,53.7217049 10.6948197,53.4321311 11.0552131,53.2280656 C11.4156066,53.0250492 11.8830164,52.9238033 12.4584918,52.9238033 C13.2417049,52.9243279 13.8528525,53.1320656 14.2903607,53.5512131 L14.2903607,53.5512131 Z M5.01613115,53.1257705 L7.33901639,53.1257705 L7.33901639,60.232918 L5.2055082,60.232918 L5.2055082,59.2760656 L5.19029508,59.2760656 C5.04445902,59.6542951 4.79003279,59.9433443 4.42963934,60.1489836 C4.06819672,60.352 3.5997377,60.4532459 3.0242623,60.4532459 C2.23895082,60.4532459 1.62885246,60.244459 1.18872131,59.8263607 C0.749114754,59.4072131 0.530360656,58.8212459 0.530360656,58.0689836 L0.530360656,53.1257705 L2.85062295,53.1257705 L2.85062295,57.4866885 C2.85062295,57.7489836 2.93665574,57.9761311 3.10977049,58.1691803 C3.2802623,58.3638033 3.54203279,58.4608525 3.89665574,58.4608525 C4.23763934,58.4608525 4.50937705,58.3638033 4.71239344,58.1691803 C4.91436066,57.9761311 5.01613115,57.7384918 5.01613115,57.4546885 L5.01613115,53.1257705 L5.01613115,53.1257705 Z M18.9135738,53.1436066 L21.2013115,53.1436066 L20.7627541,55.0226885 L18.9135738,55.0226885 L18.9135738,57.655082 C18.9135738,57.9577705 18.9943607,58.1770492 19.156459,58.3139672 C19.3185574,58.4482623 19.5509508,58.5169836 19.8531148,58.5169836 C19.9900328,58.5169836 20.1028197,58.5127869 20.1909508,58.5012459 C20.279082,58.4912787 20.3661639,58.4650492 20.4500984,58.4241311 L20.2460328,60.1615738 C20.1316721,60.2156066 19.9821639,60.2601967 19.799082,60.2958689 C19.616,60.3331148 19.4098361,60.3499016 19.1805902,60.3499016 C18.3763934,60.3499016 17.7505574,60.1531803 17.300459,59.7544918 C16.8519344,59.3584262 16.6268852,58.8055082 16.6268852,58.0957377 L16.6268852,55.0242623 L15.4371148,55.0242623 L15.4371148,53.1451803 L16.6268852,53.1451803 L16.6268852,51.624918 L18.9135738,50.7939672 L18.9135738,53.1436066 L18.9135738,53.1436066 Z M27.5582951,58.7666885 C27.4045902,58.536918 27.2514098,58.2127213 27.2514098,57.7956721 L27.2514098,55.4769836 C27.2514098,55.0483934 27.2514098,54.6754098 27.0940328,54.3569836 C26.9382295,54.0385574 26.7535738,53.7710164 26.4676721,53.5569836 C26.1807213,53.3434754 25.8601967,53.1819016 25.4683279,53.0712131 C25.0769836,52.962623 24.6552131,52.907541 24.1851803,52.907541 C23.7167213,52.907541 23.261377,52.9641967 22.8123279,53.0785574 C22.3627541,53.1950164 21.9950164,53.346623 21.7012459,53.5339016 L22.1114754,55.2713443 C22.3711475,55.1045246 22.6806557,54.973377 23.0368525,54.8721311 C23.3909508,54.772459 23.7408525,54.7231475 24.0839344,54.7231475 C24.4705574,54.7231475 24.7050492,54.7908197 24.8823607,54.9198689 C25.058623,55.0510164 25.0979672,55.220459 25.0979672,55.4292459 L25.0979672,55.6637377 L23.7382295,55.805377 C23.0279344,55.8788197 22.4702951,56.1175082 22.016,56.5266885 C21.5611803,56.9332459 21.3476721,57.4662295 21.3476721,58.1230164 C21.3476721,58.4897049 21.416918,58.8175738 21.5485902,59.1102951 C21.6792131,59.4040656 21.8544262,59.6516721 22.0695082,59.8541639 C22.2824918,60.0587541 22.5337705,60.2135082 22.8228197,60.3163279 C23.1097705,60.4212459 23.4114098,60.4747541 23.723541,60.4747541 C24.1631475,60.4747541 24.5424262,60.4023607 24.8603279,60.2628197 C25.1792787,60.1222295 25.416918,59.9050492 25.5732459,59.613377 C25.6671475,59.8735738 25.8224262,60.0834098 26.036459,60.2392131 C26.251541,60.3960656 26.461377,60.4994098 26.6706885,60.5518689 L28.2680656,59.2676721 C27.9952787,59.1648525 27.7088525,58.9959344 27.5582951,58.7666885 L27.5582951,58.7666885 Z M25.0979672,57.7641967 C25.0979672,58.0658361 25.0497049,58.315541 24.8508852,58.5080656 C24.6531148,58.7011148 24.4411803,58.7981639 24.1694426,58.7981639 C23.9517377,58.7981639 23.7880656,58.7304918 23.656918,58.5940984 C23.5268197,58.4582295 23.4685902,58.2971803 23.4685902,58.1088525 C23.4685902,57.9005902 23.5394098,57.707541 23.6758033,57.5297049 C23.8100984,57.3523934 23.9816393,57.248 24.2838033,57.2170492 L25.0979672,57.1373115 L25.0979672,57.7641967 L25.0979672,57.7641967 Z M38.7535738,58.7829508 C38.8474754,58.9282623 38.8957377,59.0557377 38.8957377,59.1585574 C38.8957377,59.2634754 38.8474754,59.3904262 38.7535738,59.543082 C38.6596721,59.6946885 38.5447869,59.8379016 38.4094426,59.9732459 C38.274623,60.1096393 38.1298361,60.2245246 37.9777049,60.3168525 C37.8271475,60.4118033 37.6980984,60.459541 37.5952787,60.459541 C37.4903607,60.459541 37.3618361,60.4112787 37.2107541,60.3168525 C37.0596721,60.224 36.9159344,60.1091148 36.7800656,59.9732459 C36.6441967,59.837377 36.5303607,59.6946885 36.436459,59.543082 C36.3415082,59.3904262 36.2942951,59.2634754 36.2942951,59.1585574 C36.2942951,59.0557377 36.3415082,58.9287869 36.436459,58.7829508 C36.5308852,58.6360656 36.6441967,58.496 36.7800656,58.3585574 C36.9159344,58.2242623 37.0596721,58.1088525 37.2107541,58.0154754 C37.3618361,57.9210492 37.4903607,57.8748852 37.5952787,57.8748852 C37.6975738,57.8748852 37.826623,57.9210492 37.9777049,58.0154754 C38.1298361,58.109377 38.274623,58.2242623 38.4094426,58.3585574 C38.5447869,58.496 38.6596721,58.635541 38.7535738,58.7829508 L38.7535738,58.7829508 Z M42.0537705,50.5652459 C42.1419016,50.7079344 42.1859672,50.8285902 42.1859672,50.9345574 C42.1859672,51.0389508 42.1419016,51.1622295 42.0537705,51.3033443 C41.9645902,51.4434098 41.8539016,51.5777049 41.725377,51.7088525 C41.5937049,51.8410492 41.4567869,51.9496393 41.3172459,52.0388197 C41.1745574,52.1269508 41.0528525,52.1720656 40.9479344,52.1720656 C40.843541,52.1720656 40.7207869,52.1269508 40.5796721,52.0388197 C40.4396066,51.9496393 40.3032131,51.8410492 40.1741639,51.7088525 C40.0430164,51.5777049 39.9323279,51.4428852 39.8441967,51.3033443 C39.7560656,51.1617049 39.712,51.0389508 39.712,50.9345574 C39.712,50.8285902 39.7560656,50.7079344 39.8441967,50.5652459 C39.9323279,50.4251803 40.0430164,50.2914098 40.1741639,50.167082 C40.3032131,50.0417049 40.4401311,49.9331148 40.5796721,49.8449836 C40.7213115,49.7558033 40.843541,49.7117377 40.9479344,49.7117377 C41.0528525,49.7117377 41.1745574,49.7558033 41.3172459,49.8449836 C41.4573115,49.9331148 41.5937049,50.0417049 41.725377,50.167082 C41.8539016,50.2908852 41.9645902,50.4251803 42.0537705,50.5652459 L42.0537705,50.5652459 Z M39.7880656,53.1436066 L42.1072787,53.1436066 L42.1072787,60.2397377 L39.7880656,60.2397377 L39.7880656,53.1436066 L39.7880656,53.1436066 Z M46.167082,55.0226885 L46.167082,57.655082 C46.167082,57.9577705 46.2457705,58.1770492 46.4094426,58.3139672 C46.5699672,58.4482623 46.8034098,58.5169836 47.1071475,58.5169836 C47.2419672,58.5169836 47.3542295,58.5127869 47.4423607,58.5012459 C47.5299672,58.4912787 47.6170492,58.4650492 47.7009836,58.4241311 L47.4979672,60.1615738 C47.3820328,60.2156066 47.2335738,60.2601967 47.0504918,60.2958689 C46.8668852,60.3331148 46.6612459,60.3499016 46.4314754,60.3499016 C45.6272787,60.3499016 45.0003934,60.1531803 44.5518689,59.7544918 C44.1038689,59.3584262 43.8777705,58.8055082 43.8777705,58.0957377 L43.8777705,55.0242623 L42.6885246,55.0242623 L42.6885246,53.1451803 L43.8777705,53.1451803 L43.8777705,51.624918 L46.1665574,50.7939672 L46.1665574,53.1451803 L48.4521967,53.1451803 L48.0136393,55.0242623 L46.167082,55.0242623 L46.167082,55.0226885 Z M34.9996066,53.8984918 C34.6806557,53.5800656 34.3192131,53.3403279 33.9100328,53.1782295 C33.5024262,53.0156066 33.0801311,52.9353443 32.6405246,52.9353443 C32.1405902,52.9353443 31.6999344,53.0245246 31.3180328,53.2007869 C30.9366557,53.3791475 30.647082,53.6498361 30.4493115,54.0165246 L30.4325246,54.0165246 L30.4325246,53.1394098 L28.4128525,53.1394098 L28.4128525,58.146623 C28.4128525,58.8758033 29.3623607,59.1422951 29.3623607,59.1422951 L28.4128525,60.0309508 L28.4128525,63.8578361 L30.6512787,63.8578361 L30.6512787,59.9685246 C30.7981639,60.0860328 31.0415738,60.1925246 31.3815082,60.2932459 C31.7203934,60.392918 32.0776393,60.4432787 32.4537705,60.4432787 C32.9458361,60.4432787 33.4100984,60.3530492 33.8486557,60.1746885 C34.2866885,59.9963279 34.6712131,59.741377 35.0001311,59.4135082 C35.3295738,59.0845902 35.5876721,58.6900984 35.7754754,58.231082 C35.9648525,57.7699672 36.0582295,57.2532459 36.0582295,56.6798689 C36.0582295,56.072918 35.9601311,55.5373115 35.767082,55.0735738 C35.5735082,54.6093115 35.319082,54.2179672 34.9996066,53.8984918 L34.9996066,53.8984918 Z M33.2626885,58.007082 C32.9463607,58.3459672 32.5377049,58.516459 32.0398689,58.516459 C31.6857705,58.516459 31.3951475,58.4477377 31.1664262,58.3134426 C30.9371803,58.1765246 30.7666885,58.0369836 30.6507541,57.8885246 L30.6507541,55.6647869 C30.7766557,55.4775082 30.9565902,55.3070164 31.1900328,55.1548852 C31.4229508,55.0032787 31.7057049,54.9287869 32.0398689,54.9287869 C32.5377049,54.9287869 32.9468852,55.1008525 33.2626885,55.4449836 C33.5784918,55.7896393 33.7384918,56.2177049 33.7384918,56.7302295 C33.7384918,57.2417049 33.5784918,57.6681967 33.2626885,58.007082 L33.2626885,58.007082 Z" id="Shape" fill="#CD1D1D" sketch:type="MSShapeGroup" mask="url(#mask-2)"></path>
            </g>
        </g>
    </g>
</svg>