<?xml version="1.0" encoding="UTF-8" standalone="no"?>
<svg width="120px" height="120px" viewBox="0 0 120 120" version="1.1" xmlns="http://www.w3.org/2000/svg" xmlns:xlink="http://www.w3.org/1999/xlink" xmlns:sketch="http://www.bohemiancoding.com/sketch/ns">
    <!-- Generator: Sketch 3.1.1 (8761) - http://www.bohemiancoding.com/sketch -->
    <title>Rectangle-1</title>
    <desc>Created with Sketch.</desc>
    <defs></defs>
    <g id="Page-1" stroke="none" stroke-width="1" fill="none" fill-rule="evenodd" sketch:type="MSPage">
        <g id="logo" sketch:type="MSLayerGroup" fill="#EE3A43">
            <g id="Welcome" sketch:type="MSShapeGroup">
                <g id="Desktop-HD">
                    <path d="M0,0 L0,13.3333333 L120,13.3333333 L120,0 L0,0 L0,0 Z M0,26.6666667 L0,40 L120,40 L120,26.6666667 L0,26.6666667 L0,26.6666667 Z M0,53.3333333 L0,66.666667 L120,66.666667 L120,53.3333333 L0,53.3333333 L0,53.3333333 Z M0,13.3333333 L0,26.6666667 L13.333333,26.6666667 L13.333333,13.3333333 L0,13.3333333 L0,13.3333333 Z M106.666667,40 L106.666667,53.3333333 L120,53.3333333 L120,40 L106.666667,40 L106.666667,40 Z M0,80 L0,93.333333 L120,93.333333 L120,80 L0,80 L0,80 Z M26.666667,106.666667 L26.666667,120 L93.333333,120 L93.333333,106.666667 L26.666667,106.666667 L26.666667,106.666667 Z M106.666667,93.333333 L106.666667,120 L120,120 L120,93.333333 L106.666667,93.333333 L106.666667,93.333333 Z M0,93.333333 L0,120 L13.333333,120 L13.333333,93.333333 L0,93.333333 L0,93.333333 Z" id="Rectangle-1"></path>
                </g>
            </g>
        </g>
    </g>
</svg>