<?xml version="1.0" encoding="UTF-8" standalone="no"?>
<svg width="120px" height="120px" viewBox="0 0 120 120" version="1.1" xmlns="http://www.w3.org/2000/svg" xmlns:xlink="http://www.w3.org/1999/xlink" xmlns:sketch="http://www.bohemiancoding.com/sketch/ns">
    <!-- Generator: Sketch 3.0.4 (8053) - http://www.bohemiancoding.com/sketch -->
    <title>Rectangle 1</title>
    <desc>Created with Sketch.</desc>
    <defs></defs>
    <g id="Welcome" stroke="none" stroke-width="1" fill="none" fill-rule="evenodd" sketch:type="MSPage">
        <g id="Desktop-HD" sketch:type="MSArtboardGroup" transform="translate(-250.000000, -40.000000)" fill="#FFFFFF">
            <path d="M250,40 L250,53.3333333 L370,53.3333333 L370,40 L250,40 L250,40 Z M250,66.6666667 L250,80 L370,80 L370,66.6666667 L250,66.6666667 L250,66.6666667 Z M250,93.3333333 L250,106.666667 L370,106.666667 L370,93.3333333 L250,93.3333333 L250,93.3333333 Z M250,53.3333333 L250,66.6666667 L263.333333,66.6666667 L263.333333,53.3333333 L250,53.3333333 L250,53.3333333 Z M356.666667,80 L356.666667,93.3333333 L370,93.3333333 L370,80 L356.666667,80 L356.666667,80 Z M250,120 L250,133.333333 L370,133.333333 L370,120 L250,120 L250,120 Z M276.666667,146.666667 L276.666667,160 L343.333333,160 L343.333333,146.666667 L276.666667,146.666667 L276.666667,146.666667 Z M356.666667,133.333333 L356.666667,160 L370,160 L370,133.333333 L356.666667,133.333333 L356.666667,133.333333 Z M250,133.333333 L250,160 L263.333333,160 L263.333333,133.333333 L250,133.333333 L250,133.333333 Z" id="Rectangle-1" sketch:type="MSShapeGroup"></path>
        </g>
    </g>
</svg>