<?xml version="1.0" encoding="UTF-8" standalone="no"?>
<svg width="100px" height="64px" viewBox="0 0 100 64" version="1.1" xmlns="http://www.w3.org/2000/svg" xmlns:xlink="http://www.w3.org/1999/xlink" xmlns:sketch="http://www.bohemiancoding.com/sketch/ns">
    <!-- Generator: Sketch 3.3.2 (12043) - http://www.bohemiancoding.com/sketch -->
    <title>citi</title>
    <desc>Created with Sketch.</desc>
    <defs></defs>
    <g id="Page-1" stroke="none" stroke-width="1" fill="none" fill-rule="evenodd" sketch:type="MSPage">
        <g id="citi" sketch:type="MSLayerGroup" transform="translate(0.000000, -1.000000)" fill="#CD1D1D">
            <g id="Page-1" sketch:type="MSShapeGroup">
                <g id="Group" transform="translate(0.523938, 0.999996)">
                    <path d="M30.3601796,51.6183069 L30.1827712,51.7899848 C27.3231703,54.7034019 24.0134,56.2474839 20.6029541,56.2474839 C13.4841339,56.2474839 8.31659432,50.9070386 8.31659432,43.5383732 C8.31659432,36.1830092 13.4841339,30.8349922 20.6029541,30.8349922 C24.0134,30.8349922 27.3231703,32.385418 30.1827712,35.30661 L30.3601796,35.4834045 L34.9384053,29.9475442 L34.816041,29.7973509 C31.008628,25.2981089 26.4402241,23.1078286 20.8239472,23.1078286 C15.188231,23.1078286 10.036447,25.0044758 6.32356988,28.4249476 C2.28943501,32.1290258 0.159518203,37.3528366 0.159518203,43.5383732 C0.159518203,49.7208417 2.28943501,54.9575432 6.32356988,58.6626452 C10.036447,62.0988726 15.188231,63.9850841 20.8239472,63.9850841 C26.4402241,63.9850841 31.008628,61.7960309 34.816041,57.294947 L34.9384053,57.1551902 L30.3601796,51.6183069 L30.3601796,51.6183069 Z" id="Shape"></path>
                    <path d="M39.5647183,63.2316631 L47.6526318,63.2316631 L47.6526318,23.7493202 L39.5647183,23.7493202 L39.5647183,63.2316631 L39.5647183,63.2316631 Z" id="Shape"></path>
                    <path d="M79.3335325,54.6465167 C77.1757873,55.9603986 75.1676214,56.6209205 73.3642823,56.6209205 C70.751251,56.6209205 69.570374,55.2417645 69.570374,52.1697651 L69.570374,31.2202965 L77.8074571,31.2202965 L77.8074571,23.785334 L69.570374,23.785334 L69.570374,11.5002014 L61.6430895,15.7426421 L61.6430895,23.785334 L54.8043969,23.785334 L54.8043969,31.2202965 L61.6430895,31.2202965 L61.6430895,53.5061554 C61.6430895,59.5779223 65.2397409,63.725827 70.6086293,63.8336628 C74.2541853,63.9050732 76.4518323,62.8191446 77.7865857,62.0252088 L77.8647497,61.9670981 L79.8119392,54.3543181 L79.3335309,54.6465192 L79.3335325,54.6465167 L79.3335325,54.6465167 Z" id="Shape"></path>
                    <path d="M86.0322667,63.2316631 L94.1254968,63.2316631 L94.1254968,23.7493202 L86.0322667,23.7493202 L86.0322667,63.2316631 L86.0322667,63.2316631 Z" id="Shape"></path>
                    <path d="M98.9699389,16.7436556 C91.5662793,6.25674699 79.2709184,1.32748534e-06 66.7613146,1.32748534e-06 C54.2568266,1.32748534e-06 41.9590073,6.25674699 34.5676295,16.7436556 L34.188464,17.2832461 L43.510661,17.2832461 L43.6139949,17.1713175 C49.9589335,10.6225751 58.2416472,7.15933755 66.7613146,7.15933755 C75.282005,7.15933755 83.5630859,10.6225751 89.920297,17.1713175 L90.0234261,17.2832461 L99.3427631,17.2832461 L98.9699389,16.7436556 L98.9699389,16.7436556 Z" id="Shape"></path>
                </g>
            </g>
        </g>
    </g>
</svg>