<?xml version="1.0" encoding="UTF-8" standalone="no"?>
<svg width="141px" height="64px" viewBox="0 0 141 64" version="1.1" xmlns="http://www.w3.org/2000/svg" xmlns:xlink="http://www.w3.org/1999/xlink" xmlns:sketch="http://www.bohemiancoding.com/sketch/ns">
    <!-- Generator: Sketch 3.3.2 (12043) - http://www.bohemiancoding.com/sketch -->
    <title>drop</title>
    <desc>Created with Sketch.</desc>
    <defs></defs>
    <g id="Page-1" stroke="none" stroke-width="1" fill="none" fill-rule="evenodd" sketch:type="MSPage">
        <g id="drop" sketch:type="MSLayerGroup">
            <g id="Group" sketch:type="MSShapeGroup">
                <path d="M116.533333,63.7333333 L116.533333,62.6666667 L116.533333,34.1333333 C116.533333,33.2 116.666667,32.1333333 116.8,31.2 C117.2,29.4666667 117.866667,28 119.733333,27.2 C123.466667,25.7333333 127.466667,28.5333333 127.066667,32.5333333 C126.8,36.2666667 122.666667,38.4 119.466667,36.4 C119.2,36.2666667 119.066667,36.1333333 118.666667,36 L118.666667,36.9333333 L118.666667,49.8666667 L118.666667,50.4 C118.8,50.5333333 118.933333,50.9333333 119.066667,50.9333333 C121.2,50.9333333 123.333333,51.0666667 125.333333,50.8 C129.466667,50.2666667 132.8,48 135.733333,45.0666667 C141.733333,38.6666667 142.533333,28.4 137.333333,21.3333333 C132.666667,15.0666667 126.4,12.6666667 118.8,13.6 C114.666667,14.1333333 111.066667,16 108.133333,19.0666667 C104.533333,22.8 103.066667,27.4666667 102.933333,32.6666667 L102.933333,62.9333333 L102.933333,63.7333333 C107.6,63.7333333 112,63.7333333 116.533333,63.7333333 L116.533333,63.7333333 Z M22.5333333,28.4 L22.5333333,13.7333333 C22.4,13.7333333 22.4,13.6 22.4,13.6 C22,13.6 21.7333333,13.6 21.3333333,13.4666667 C15.2,12.8 9.86666667,14.6666667 5.6,19.2 C1.35447209e-14,25.0666667 -1.33333333,34.4 2.66666667,41.3333333 C6.26666667,47.4666667 11.7333333,50.8 18.8,50.9333333 C24.8,51.0666667 29.8666667,48.9333333 33.8666667,44.4 C36.9333333,40.8 38.2666667,36.4 38.2666667,31.7333333 L38.2666667,1.46666667 L38.2666667,0.666666667 L37.3333333,0.666666667 L25.7333333,0.666666667 C24.9333333,0.666666667 24.8,0.933333333 24.8,1.73333333 L24.8,29.6 C24.8,30.5333333 24.8,31.4666667 24.6666667,32.4 C24.4,36.1333333 22.1333333,38 18.6666667,37.6 C16.6666667,37.3333333 14.9333333,35.8666667 14.4,33.8666667 C13.8666667,31.8666667 14.5333333,29.6 16.2666667,28.2666667 C17.8666667,27.0666667 20,26.9333333 21.7333333,28 C22,28.1333333 22.2666667,28.2666667 22.5333333,28.4 L22.5333333,28.4 Z M82.2666667,13.3333333 C71.2,13.3333333 62.9333333,21.4666667 62.9333333,32.1333333 C62.8,42.4 71.4666667,50.9333333 81.6,51.0666667 C92.2666667,51.3333333 100.933333,42.5333333 101.066667,32.5333333 C101.2,22 92.4,13.0666667 82.2666667,13.3333333 L82.2666667,13.3333333 Z M68.4,15.7333333 C68,15.6 67.6,15.3333333 67.2,15.2 C63.4666667,13.8666667 59.6,13.2 55.7333333,13.3333333 C50,13.3333333 45.6,15.8666667 42.8,20.8 C41.2,23.4666667 40.6666667,26.5333333 40.6666667,29.6 L40.6666667,49.3333333 L40.6666667,50.1333333 L41.2,50.1333333 L53.6,50.1333333 C54.2666667,50.1333333 54.2666667,49.7333333 54.2666667,49.3333333 L54.2666667,32.9333333 L54.2666667,31.4666667 C54.5333333,28.4 56.4,26.9333333 59.3333333,27.3333333 C59.8666667,27.4666667 60.2666667,27.6 60.8,27.7333333 C61.8666667,22.9333333 64.4,18.9333333 68.4,15.7333333 L68.4,15.7333333 Z" id="Shape" fill="#FFFFFF"></path>
                <path d="M116.666667,63.7333333 L103.066667,63.7333333 L103.066667,62.9333333 L103.066667,32.6666667 C103.066667,27.4666667 104.533333,22.8 108.266667,19.0666667 C111.2,16 114.8,14.1333333 118.933333,13.6 C126.533333,12.6666667 132.933333,15.0666667 137.466667,21.3333333 C142.666667,28.4 141.866667,38.6666667 135.866667,45.0666667 C133.066667,48.1333333 129.733333,50.2666667 125.466667,50.8 C124.255051,50.951452 122.269286,50.9738794 120.779542,50.9649873 C119.646243,50.9582229 118.799998,50.7999992 118.799998,50.7999992 L118.799998,50.4 L118.8,49.8666667 L118.8,36.9333333 L118.8,36 C119.066667,36.1333333 119.333333,36.2666667 119.6,36.4 C122.8,38.4 126.933333,36.2666667 127.2,32.5333333 C127.466667,28.5333333 123.6,25.6 119.866667,27.2 C118.133333,27.8666667 117.333333,29.4666667 116.933333,31.2 C116.8,32.1333333 116.666667,33.2 116.666667,34.1333333 L116.666667,62.6666667 L116.666667,63.7333333 Z" id="Shape" fill="#CD1D1D"></path>
                <path d="M21.7333333,28 C19.8666667,26.9333333 17.8666667,27.0666667 16.2666667,28.2666667 C14.5333333,29.6 13.7333333,31.8666667 14.4,33.8666667 C14.9333333,35.8666667 16.8,37.3333333 18.6666667,37.6 C22.1333333,38 24.2666667,36.1333333 24.6666667,32.4 C24.8,31.4666667 24.8,30.5333333 24.8,29.6 L24.8,1.73333333 C24.8,0.933333333 24.9333333,0.666666667 25.7333333,0.666666667 L37.3333333,0.666666667 L38.2666667,0.666666667 L38.2666667,1.46666667 L38.2666667,31.7333333 C38.2666667,36.4 37.0666667,40.8 33.8666667,44.4 C29.8666667,48.9333333 24.8,51.0666667 18.8,50.9333333 C11.7333333,50.6666667 6.26666667,47.4666667 2.66666667,41.3333333 C-1.33333333,34.4 7.99360578e-15,25.0666667 5.6,19.2 C10,14.6666667 15.2,12.8 21.3333333,13.4666667 C22.533333,13.600001 22.4,13.600001 22.4,13.600001 L22.5333333,13.6266658 L22.5333333,28.4 C22.2666667,28.2666667 22,28.1333333 21.7333333,28 Z" id="Shape" fill="#CD1D1D"></path>
                <path d="M82.2666667,13.3333333 C92.4,13.0666667 101.2,22 101.066667,32.5333333 C100.933333,42.5333333 92.2666667,51.3333333 81.6,51.0666667 C71.4666667,50.9333333 62.8,42.4 62.9333333,32.1333333 C63.0666667,21.4666667 71.3333333,13.3333333 82.2666667,13.3333333 L82.2666667,13.3333333 Z M81.8666667,24.8 C80.6666667,26 79.4666667,27.2 78.2666667,28.5333333 C78,28.8 77.7333333,29.0666667 77.6,29.3333333 C76,31.7333333 76.4,34.8 78.5333333,36.6666667 C80.6666667,38.4 83.8666667,38.2666667 85.8666667,36.4 C87.8666667,34.4 88.1333333,31.2 86.2666667,29.0666667 C84.9333333,27.4666667 83.3333333,26.1333333 81.8666667,24.8 L81.8666667,24.8 Z" id="Shape" fill="#CD1D1D"></path>
                <path d="M68.4,15.7333333 C64.4,18.9333333 61.7333333,22.8 60.8,27.8666667 C60.2666667,27.7333333 59.8666667,27.6 59.3333333,27.4666667 C56.4,27.0666667 54.5333333,28.5333333 54.2666667,31.6 L54.2666667,33.0666667 L54.2666667,49.4666667 C54.2666667,50 54.2666667,50.2666667 53.6,50.2666667 L41.2,50.2666667 L40.6666667,50.2666667 L40.6666667,49.4666667 L40.6666667,29.7333333 C40.6666667,26.6666667 41.3333333,23.6 42.8,20.9333333 C45.6,15.8666667 50,13.4666667 55.7333333,13.4666667 C59.6,13.4666667 63.4666667,14 67.2,15.3333333 C67.6,15.4666667 68,15.6 68.4,15.7333333 L68.4,15.7333333 Z" id="Shape" fill="#CD1D1D"></path>
                <path d="M81.8666667,24.8 C83.3333333,26.2666667 84.9333333,27.4666667 86.2666667,28.9333333 C88.1333333,31.0666667 87.8666667,34.2666667 85.8666667,36.2666667 C83.8666667,38.2666667 80.6666667,38.4 78.5333333,36.5333333 C76.2666667,34.6666667 75.8666667,31.6 77.6,29.2 C77.8666667,28.9333333 78,28.6666667 78.2666667,28.4 C79.4666667,27.2 80.6666667,25.8666667 81.8666667,24.8 L81.8666667,24.8 Z" id="Shape" fill="#FFFFFF"></path>
            </g>
        </g>
    </g>
</svg>