<?xml version="1.0" encoding="UTF-8" standalone="no"?>
<svg width="198px" height="65px" viewBox="0 0 198 65" version="1.1" xmlns="http://www.w3.org/2000/svg" xmlns:xlink="http://www.w3.org/1999/xlink" xmlns:sketch="http://www.bohemiancoding.com/sketch/ns">
    <!-- Generator: Sketch 3.3.3 (12072) - http://www.bohemiancoding.com/sketch -->
    <title>google</title>
    <desc>Created with Sketch.</desc>
    <defs></defs>
    <g id="Page-1" stroke="none" stroke-width="1" fill="none" fill-rule="evenodd" sketch:type="MSPage">
        <g id="google" sketch:type="MSLayerGroup">
            <path d="M25.5930091,22.9534954 L25.5930091,29.7875836 L41.9265805,29.7875836 C41.1196717,39.3708359 33.1466413,43.4577356 25.6206687,43.4577356 C15.9919757,43.4577356 7.58978723,35.8817781 7.58978723,25.2632675 C7.58978723,14.9191793 15.5992097,6.95282675 25.6418085,6.95282675 C33.389848,6.95282675 37.9554559,11.8920365 37.9554559,11.8920365 L42.7405623,6.93682371 C42.7405623,6.93682371 36.5987538,0.0993768997 25.3972188,0.0993768997 C11.1333739,0.0991793313 0.0985866261,12.1378116 0.0985866261,25.1411702 C0.0985866261,37.8829483 10.4786322,50.3074316 25.7607447,50.3074316 C39.2015198,50.3074316 49.040228,41.0999544 49.040228,27.4843313 C49.040228,24.6118845 48.6231809,22.9517173 48.6231809,22.9517173 L25.5930091,22.9534954 Z" id="path2998" fill="#4285F4" sketch:type="MSShapeGroup"></path>
            <path d="M67.4893617,18.0042097 C58.0392705,18.0042097 51.2668237,25.3922796 51.2668237,34.0088298 C51.2668237,42.7528116 57.8357751,50.2781915 67.6003951,50.2781915 C76.44,50.2781915 83.6818693,43.5219453 83.6818693,34.1967173 C83.6818693,23.5086626 75.2579483,18.0042097 67.4893617,18.0042097 L67.4893617,18.0042097 Z M67.5833312,24.3427964 C72.2305348,24.3427964 76.6343342,28.0999544 76.6343342,34.1540426 C76.6343342,40.0797112 72.2493038,43.9439514 67.5619938,43.9439514 C62.411781,43.9439514 58.3487871,39.8191185 58.3487871,34.1070213 C58.3487871,28.5174164 62.3614011,24.3427964 67.5833312,24.3427964 L67.5833312,24.3427964 Z" id="path3000" fill="#EA4335" sketch:type="MSShapeGroup"></path>
            <path d="M102.771125,18.0042097 C93.3210334,18.0042097 86.5485866,25.3922796 86.5485866,34.0088298 C86.5485866,42.7528116 93.117538,50.2781915 102.882158,50.2781915 C111.721763,50.2781915 118.963632,43.5219453 118.963632,34.1967173 C118.963632,23.5086626 110.539711,18.0042097 102.771125,18.0042097 L102.771125,18.0042097 Z M102.865092,24.3427964 C107.512296,24.3427964 111.916095,28.0999544 111.916095,34.1540426 C111.916095,40.0797112 107.531065,43.9439514 102.843755,43.9439514 C97.6935419,43.9439514 93.630548,39.8191185 93.630548,34.1070213 C93.630548,28.5174164 97.643162,24.3427964 102.865092,24.3427964 L102.865092,24.3427964 Z" id="path3005" fill="#FBBC05" sketch:type="MSShapeGroup"></path>
            <path d="M137.377204,18.0212006 C128.703161,18.0212006 121.885076,25.6182979 121.885076,34.1453495 C121.885076,43.8584043 129.78959,50.2995289 137.227644,50.2995289 C141.826839,50.2995289 144.27234,48.4738982 146.077918,46.3783891 L146.077918,49.5604255 C146.077918,55.1279027 142.697523,58.4618693 137.595122,58.4618693 C132.665988,58.4618693 130.193617,54.7967781 129.334392,52.7169757 L123.132523,55.3096657 C125.332644,59.9618085 129.761733,64.8132979 137.646489,64.8132979 C146.270745,64.8132979 152.843845,59.381155 152.843845,47.9885714 L152.843845,18.991459 L146.078116,18.991459 L146.078116,21.7250152 C143.99772,19.4832067 141.152736,18.0215957 137.377204,18.0215957 L137.377204,18.0212006 Z M138.005076,24.3469453 C142.257736,24.3469453 146.62459,27.9782523 146.62459,34.1795289 C146.62459,40.4827508 142.267021,43.9565957 137.911033,43.9565957 C133.286748,43.9565957 128.983906,40.2018085 128.983906,34.2393921 C128.983906,28.0440426 133.452705,24.3469453 138.004878,24.3469453 L138.005076,24.3469453 Z" id="path3007" fill="#4285F4" sketch:type="MSShapeGroup"></path>
            <path d="M182.926596,17.9826748 C174.744498,17.9826748 167.874453,24.4925532 167.874453,34.0983283 C167.874453,44.2626292 175.532006,50.2908359 183.712523,50.2908359 C190.540091,50.2908359 194.730517,46.5556079 197.231337,43.208997 L191.652994,39.4972796 C190.20545,41.7438298 187.785395,43.9394073 183.746702,43.9394073 C179.210137,43.9394073 177.12421,41.4551824 175.831915,39.0487994 L197.469605,30.0705015 L196.346251,27.4392857 C194.255977,22.2867021 189.379989,17.9836626 182.927406,17.9836626 L182.926596,17.9826748 Z M183.208486,24.1888906 C186.156799,24.1888906 188.278684,25.7564377 189.179793,27.6358663 L174.729839,33.6755319 C174.106866,28.9996809 178.536784,24.1888906 183.208486,24.1888906 L183.208486,24.1888906 Z" id="path3011" fill="#EA4335" sketch:type="MSShapeGroup"></path>
            <path d="M157.558815,49.3328267 L164.666337,49.3328267 L164.666337,1.76823708 L157.558815,1.76823708 L157.558815,49.3328267 Z" id="path3015" fill="#34A853" sketch:type="MSShapeGroup"></path>
        </g>
    </g>
</svg>