<?xml version="1.0" encoding="UTF-8" standalone="no"?>
<svg width="231px" height="64px" viewBox="0 0 231 64" version="1.1" xmlns="http://www.w3.org/2000/svg" xmlns:xlink="http://www.w3.org/1999/xlink" xmlns:sketch="http://www.bohemiancoding.com/sketch/ns">
    <!-- Generator: Sketch 3.3.2 (12043) - http://www.bohemiancoding.com/sketch -->
    <title>JL logo_white + Group</title>
    <desc>Created with Sketch.</desc>
    <defs></defs>
    <g id="Page-1" stroke="none" stroke-width="1" fill="none" fill-rule="evenodd" sketch:type="MSPage">
        <g id="JL-logo_white-+-Group" sketch:type="MSLayerGroup" fill="#CD1D1D">
            <g id="JL-logo_white" transform="translate(0.000000, 35.404255)" sketch:type="MSShapeGroup">
                <path d="M36.9360508,24.2465159 C42.5235207,24.2465159 46.2135901,19.9853916 46.2135901,14.2412064 C46.2135901,8.88001792 42.5235207,4.61889362 36.9360508,4.61889362 C31.3814528,4.61889362 27.6913834,8.88001792 27.6913834,14.2412064 C27.6906189,19.9853916 31.3822172,24.2465159 36.9360508,24.2465159 M36.8962986,0.285145203 C45.2992908,0.13531019 51.2361209,5.76253229 51.2361209,14.3948638 C51.2361209,22.7986204 45.2992908,28.4258425 36.8962986,28.5840866 C28.6041538,28.5840866 22.6726749,22.9538066 22.6726749,14.55005 C22.6726749,5.9123673 28.6049183,0.285145203 36.8962986,0.285145203" id="Shape"></path>
                <path d="M57.5108443,0.96781187 L62.299449,0.96781187 L62.299449,11.6970691 L74.8909414,11.6970691 L74.8909414,0.96781187 L79.681075,0.96781187 L79.681075,27.8953042 L74.8909414,27.8953042 L74.8909414,16.030053 L62.299449,16.030053 L62.299449,27.8953042 L57.5108443,27.8953042 L57.5108443,0.96781187 Z" id="Shape"></path>
                <path d="M104.057168,17.6293124 L99.9076551,6.67453826 L95.6893408,17.6293124 L104.057168,17.6293124 L104.057168,17.6293124 Z M97.9705024,0.96781187 L102.115428,0.96781187 L113.714646,27.8953042 L108.237259,27.8953042 L105.726758,21.734486 L94.0526226,21.734486 L91.6185681,27.8953042 L86.2550862,27.8953042 L97.9705024,0.96781187 L97.9705024,0.96781187 Z" id="Shape"></path>
                <path d="M119.836285,0.96781187 L126.185926,0.96781187 L139.23151,20.9753729 L139.307957,21.0533483 L139.23151,21.0533483 L139.307957,20.9753729 L139.307957,0.96781187 L144.098855,0.96781187 L144.098855,27.8953042 L138.015247,27.8953042 L124.70363,7.2440642 L124.627183,7.2440642 L124.627183,27.8953042 L119.836285,27.8953042 L119.836285,0.96781187 Z" id="Shape"></path>
                <path d="M153.605542,0.96781187 L159.955948,0.96781187 L173.000003,20.9753729 L173.079507,21.0533483 L173.000003,21.0533483 L173.079507,20.9753729 L173.079507,0.96781187 L177.867348,0.96781187 L177.867348,27.8953042 L171.785269,27.8953042 L158.473651,7.2440642 L158.395676,7.2440642 L158.395676,27.8953042 L153.605542,27.8953042 L153.605542,0.96781187 Z" id="Shape"></path>
                <path d="M187.374035,0.96781187 L205.210517,0.96781187 L205.210517,5.30461814 L192.166462,5.30461814 L192.166462,11.9218216 L204.527086,11.9218216 L204.527086,16.2586278 L192.166462,16.2586278 L192.166462,23.5592624 L205.897771,23.5592624 L205.897771,27.8953042 L187.374035,27.8953042 L187.374035,0.96781187 Z" id="Shape"></path>
                <path d="M227.232442,6.74945577 C226.206531,5.30844046 224.379461,4.62195147 222.514932,4.62195147 C220.310982,4.62195147 218.103209,5.60963942 218.103209,8.08115267 C218.103209,13.4828578 230.884288,10.4028309 230.884288,19.9846271 C230.884288,25.7677999 226.320436,28.5817932 221.032636,28.5817932 C217.686576,28.5817932 214.416962,27.5535887 212.209189,24.9284181 L215.822047,21.4287003 C217.003144,23.2183113 219.018272,24.2426935 221.148835,24.2426935 C223.352785,24.2426935 225.860993,23.0279597 225.860993,20.5587398 C225.860993,14.6624263 213.085265,18.0459455 213.085265,8.4236327 C213.085265,2.87056364 218.029056,0.285909668 223.009541,0.285909668 C225.823534,0.285909668 228.639821,1.08553938 230.73216,3.06167973 L227.232442,6.74945577 L227.232442,6.74945577 Z" id="Shape"></path>
                <path d="M16.2978066,27.8891885 L0.0590548712,27.8891885 L0.0590548712,23.5592624 L11.5069085,23.5592624 L11.5069085,0.971634192 L16.2978066,0.971634192 L16.2978066,27.8891885 Z" id="Shape"></path>
            </g>
            <g id="Group" sketch:type="MSShapeGroup">
                <path d="M0.306167973,0.96781187 L5.10012393,0.96781187 L5.10012393,23.5592624 L16.5456842,23.5592624 L16.5456842,27.8953042 L0.306167973,27.8953042 L0.306167973,0.96781187 Z" id="Shape-Copy-8"></path>
                <path d="M23.0887346,0.96781187 L40.9244524,0.96781187 L40.9244524,5.30461814 L27.8819261,5.30461814 L27.8819261,11.9218216 L40.2402568,11.9218216 L40.2402568,16.2586278 L27.8819261,16.2586278 L27.8819261,23.5592624 L41.6124703,23.5592624 L41.6124703,27.8953042 L23.0887346,27.8953042 L23.0887346,0.96781187 Z" id="Shape-Copy"></path>
                <path d="M61.8035028,24.2465159 C67.3932661,24.2465159 71.0848645,19.9853916 71.0848645,14.2412064 C71.0848645,8.88001792 67.3947951,4.61889362 61.8035028,4.61889362 C56.2504337,4.61889362 52.5672445,8.88001792 52.5672445,14.2412064 C52.5672445,19.9853916 56.2519627,24.2465159 61.8035028,24.2465159 M61.7668085,0.285145203 C70.1690362,0.13531019 76.1043374,5.76253229 76.1043374,14.3948638 C76.1043374,22.7986204 70.1690362,28.4258425 61.7668085,28.5840866 C53.4738992,28.5840866 47.5447137,22.9538066 47.5447137,14.55005 C47.5454782,5.9123673 53.4754281,0.285145203 61.7668085,0.285145203" id="Shape-Copy-2"></path>
                <path d="M82.5717059,0.96781187 L88.9236402,0.96781187 L101.966166,20.9753729 L102.043377,21.0533483 L101.966166,21.0533483 L102.043377,20.9753729 L102.043377,0.96781187 L106.836569,0.96781187 L106.836569,27.8953042 L100.751433,27.8953042 L87.4382859,7.2440642 L87.362604,7.2440642 L87.362604,27.8953042 L82.5717059,27.8953042 L82.5717059,0.96781187 Z" id="Shape-Copy-3"></path>
                <path d="M130.298744,17.6293124 L126.156112,6.67453826 L121.933975,17.6293124 L130.298744,17.6293124 L130.298744,17.6293124 Z M124.213608,0.96781187 L128.360063,0.96781187 L139.95928,27.8953042 L134.483422,27.8953042 L131.973686,21.734486 L120.298786,21.734486 L117.867025,27.8953042 L112.50125,27.8953042 L124.213608,0.96781187 L124.213608,0.96781187 Z" id="Shape-Copy-4"></path>
                <path d="M154.143916,12.3797357 C156.84324,12.3797357 160.002771,12.1511609 160.002771,8.65144308 C160.002771,5.45827548 157.035885,5.0760433 154.563607,5.0760433 L150.421739,5.0760433 L150.421739,12.3797357 L154.143916,12.3797357 L154.143916,12.3797357 Z M145.627784,0.96781187 L154.984063,0.96781187 C160.154135,0.96781187 165.023009,2.64428219 165.023009,8.68813736 C165.023009,12.567794 162.778541,15.4215394 158.784979,15.9925943 L165.938072,27.8953042 L160.154135,27.8953042 L153.919164,16.4864382 L150.422504,16.4864382 L150.422504,27.8953042 L145.628548,27.8953042 L145.628548,0.96781187 L145.627784,0.96781187 Z" id="Shape-Copy-5"></path>
                <path d="M181.378723,23.5592624 C187.387413,23.5592624 192.292216,20.9746084 192.292216,14.4323225 C192.292216,7.89003658 188.031092,5.30538261 182.174531,5.30538261 L177.800266,5.30538261 L177.800266,23.5592624 L181.378723,23.5592624 L181.378723,23.5592624 Z M173.010132,0.96781187 L183.618604,0.96781187 C190.694486,0.96781187 197.307867,5.30461814 197.307867,14.4323225 C197.307867,23.6349444 189.513389,27.8953042 183.049078,27.8953042 L173.010132,27.8953042 L173.010132,0.96781187 L173.010132,0.96781187 Z" id="Shape-Copy-6"></path>
                <path d="M216.596067,24.2465159 C222.185066,24.2465159 225.874371,19.9853916 225.874371,14.2412064 C225.874371,8.88001792 222.185066,4.61889362 216.596067,4.61889362 C211.039176,4.61889362 207.353693,8.88001792 207.353693,14.2412064 C207.353693,19.9853916 211.039176,24.2465159 216.596067,24.2465159 M216.553257,0.285145203 C224.957778,0.13531019 230.895373,5.76253229 230.895373,14.3948638 C230.895373,22.7986204 224.957778,28.4258425 216.553257,28.5840866 C208.262641,28.5840866 202.33422,22.9538066 202.33422,14.55005 C202.33422,5.9123673 208.262641,0.285145203 216.553257,0.285145203" id="Shape-Copy-7"></path>
            </g>
        </g>
    </g>
</svg>