<?xml version="1.0" encoding="UTF-8" standalone="no"?>
<svg width="136px" height="64px" viewBox="0 0 136 64" version="1.1" xmlns="http://www.w3.org/2000/svg" xmlns:xlink="http://www.w3.org/1999/xlink" xmlns:sketch="http://www.bohemiancoding.com/sketch/ns">
    <!-- Generator: Sketch 3.3.2 (12043) - http://www.bohemiancoding.com/sketch -->
    <title>Red_Bull</title>
    <desc>Created with Sketch.</desc>
    <defs></defs>
    <g id="Page-1" stroke="none" stroke-width="1" fill="none" fill-rule="evenodd" sketch:type="MSPage">
        <g id="Red_Bull" sketch:type="MSLayerGroup">
            <path d="M97.2871508,13.3005587 L91.5307263,13.3005587 L91.5307263,24.5988827 C91.5307263,28.2815642 95.4636872,31.427933 100.326257,31.427933 C105.188827,31.427933 109.443575,28.2458101 109.443575,24.5988827 L109.443575,13.3005587 L103.687151,13.3005587 L103.687151,23.4905028 C103.687151,25.1709497 102.256983,26.5296089 100.505028,26.5296089 C98.7173184,26.5296089 97.2871508,25.1709497 97.2871508,23.4547486 L97.2871508,13.3005587 L97.2871508,13.3005587 Z" id="Shape" fill="#E21B4D" sketch:type="MSShapeGroup"></path>
            <path d="M5.97094972,7.07932961 L5.97094972,30.5340782 L0,30.5340782 L0,2.25251397 L10.7620112,2.25251397 C15.4458101,2.25251397 19.2715084,6.0424581 19.2715084,10.6547486 C19.2715084,14.5877095 16.5184358,17.877095 12.8,18.7351955 L21.0949721,30.5340782 L13.9798883,30.5340782 L8.00893855,21.273743 L8.00893855,14.5162011 L9.40335196,14.5162011 C11.6201117,14.5162011 13.4078212,12.8715084 13.4078212,10.8335196 C13.4078212,8.79553073 11.7273743,7.07932961 9.51061453,7.07932961 L5.97094972,7.07932961 L5.97094972,7.07932961 Z" id="Shape" fill="#E21B4D" sketch:type="MSShapeGroup"></path>
            <path d="M60.9251397,30.5340782 L60.9251397,0.893854749 L55.2759777,0.893854749 L55.2759777,14.873743 C53.7743017,13.4078212 51.8793296,12.5854749 49.698324,12.5854749 C45.0502793,12.5854749 41.2603352,16.6972067 41.2603352,21.8100559 C41.2603352,26.8871508 45.0502793,31.0346369 49.698324,31.0346369 C51.9150838,31.0346369 53.9888268,30.1765363 55.2759777,28.603352 L55.2759777,30.5340782 L60.9251397,30.5340782 L60.9251397,30.5340782 Z M51.3072626,26.2078212 C49.0189944,26.2078212 47.1597765,24.1698324 47.1597765,21.6670391 C47.1597765,19.1642458 49.0189944,17.126257 51.3072626,17.126257 C53.5955307,17.126257 55.4547486,19.1642458 55.4547486,21.6670391 C55.4189944,24.1698324 53.5597765,26.2078212 51.3072626,26.2078212 L51.3072626,26.2078212 Z" id="Shape" fill="#E21B4D" sketch:type="MSShapeGroup"></path>
            <path d="M84.6659218,15.1597765 C86.203352,13.7296089 87.1687151,11.7988827 87.1687151,9.68938547 C87.1687151,7.75865922 86.4178771,6.00670391 85.1307263,4.6122905 C83.772067,3.14636872 81.4122905,2.25251397 78.1944134,2.25251397 L68.5765363,2.25251397 L68.5765363,30.5340782 L81.0189944,30.5340782 C85.7743017,30.4625698 89.6357542,26.8513966 89.6357542,22.4178771 C89.6,19.2 88.4558659,16.9117318 84.6659218,15.1597765 M79.8748603,25.6357542 L74.4759777,25.6357542 L74.4759777,7.32960894 L78.2659218,7.32960894 C79.9106145,7.32960894 81.3050279,8.58100559 81.3050279,10.2614525 C81.3050279,11.9418994 79.9106145,13.3005587 78.2659218,13.3005587 L76.2636872,13.3005587 L76.2636872,18.4134078 L79.9463687,18.4134078 C81.9486034,18.4134078 83.4502793,20.0581006 83.4502793,22.0603352 C83.3787709,24.0625698 82.0558659,25.5284916 79.8748603,25.6357542" id="Shape" fill="#E21B4D" sketch:type="MSShapeGroup"></path>
            <path d="M26.1005587,19.7005587 C26.1005587,17.8055866 27.6379888,16.2681564 29.5329609,16.2681564 C31.427933,16.2681564 32.9653631,17.8055866 32.9653631,19.7005587 L26.1005587,19.7005587 L26.1005587,19.7005587 Z M38.5430168,22.9184358 C38.5787709,22.5251397 38.6145251,22.1318436 38.6145251,21.7385475 C38.6860335,15.624581 34.6815642,12.2994413 29.5329609,12.2994413 C24.3843575,12.2994413 20.2011173,16.5184358 20.2011173,21.7385475 C20.2011173,26.9586592 24.3843575,31.1776536 29.5329609,31.1776536 C33.4659218,31.1776536 36.5407821,29.3899441 38.1139665,26.6011173 L33.5374302,24.4916201 C32.9653631,25.7430168 31.6067039,26.6368715 29.9977654,26.6368715 C27.8882682,26.6368715 26.1363128,25.027933 26.1363128,22.9184358 L38.5430168,22.9184358 L38.5430168,22.9184358 Z" id="Shape" fill="#E21B4D" sketch:type="MSShapeGroup"></path>
            <rect id="Rectangle-path" fill="#E21B4D" sketch:type="MSShapeGroup" x="112.089385" y="0.893854749" width="5.64916201" height="29.6402235"></rect>
            <rect id="Rectangle-path" fill="#E21B4D" sketch:type="MSShapeGroup" x="121.707263" y="0.893854749" width="5.64916201" height="29.6402235"></rect>
            <path d="M50.6994413,50.1273743 C50.6994413,42.4759777 56.8849162,36.2905028 64.5363128,36.2905028 C72.1877095,36.2905028 78.3731844,42.4759777 78.3731844,50.1273743 C78.3731844,57.7787709 72.1877095,63.9642458 64.5363128,63.9642458 C56.8849162,63.9642458 50.6994413,57.7430168 50.6994413,50.1273743" id="Shape" fill="#FFD300" sketch:type="MSShapeGroup"></path>
            <path d="M53.4167598,41.9039106 C53.6312849,42.0111732 53.8458101,42.1184358 54.0960894,42.2614525 C55.1329609,42.9765363 55.8122905,43.5843575 57.3854749,44.9072626 C57.8502793,45.372067 58.3865922,46.122905 58.7798883,46.5877095 C59.6379888,47.6603352 60.2458101,48.4111732 60.3530726,49.3050279 C60.603352,51.0927374 60.8536313,52.0938547 61.5329609,53.9173184 C61.6044693,54.0960894 61.8905028,54.3463687 62.0692737,54.5608939 C62.498324,55.0972067 62.677095,55.9553073 63.4636872,56.4201117 C63.8927374,56.6703911 63.9642458,56.7061453 64.1072626,56.8134078 C64.3217877,56.9921788 63.9642458,57.6357542 62.8558659,57.4927374 C63.427933,57.7787709 63.3564246,58.4223464 62.5340782,58.4581006 C60.9251397,58.5296089 59.9240223,57.6 59.7094972,57.3497207 C59.6022346,57.2424581 59.2804469,57.6715084 58.7083799,57.8860335 C58.1363128,58.172067 57.3497207,57.8860335 56.7418994,57.9932961 C56.1698324,58.1005587 55.4189944,58.4581006 54.8111732,58.4938547 C53.7385475,58.5296089 53.5955307,57.7787709 53.5955307,57.1351955 L53.5955307,56.849162 C53.4882682,57.2424581 53.0949721,57.9217877 53.0949721,57.9217877 C52.9519553,58.2435754 52.7374302,58.6368715 52.3441341,58.7798883 L51.2,58.922905 C50.3061453,59.3162011 49.4122905,59.6022346 48.4826816,59.9240223 C47.9463687,60.0312849 47.3385475,59.9240223 46.9452514,59.6022346 C46.6234637,59.3519553 46.4446927,59.0301676 46.2659218,58.7083799 C46.0871508,58.6368715 45.8368715,58.7083799 45.6223464,58.6368715 C45.4435754,58.6011173 45.3363128,58.4581006 45.2290503,58.350838 L44.4424581,57.027933 C44.3709497,56.849162 44.3709497,56.5988827 44.4424581,56.4201117 C44.5854749,56.1340782 44.9072626,55.9910615 45.2290503,55.9910615 C45.8011173,55.9553073 46.4446927,55.7765363 47.0167598,55.9910615 C47.2670391,55.7050279 47.6603352,55.7407821 48.0178771,55.6692737 C47.8748603,55.4547486 47.6603352,55.347486 47.4815642,55.1687151 C46.4446927,55.4189944 45.3005587,55.2402235 44.2994413,55.0614525 C43.3698324,54.8469274 42.5832402,55.3832402 41.6536313,55.2402235 L41.3675978,55.8480447 C40.9385475,56.3128492 40.9027933,57.0994413 40.2592179,57.4212291 C39.7944134,57.5284916 39.4368715,57.8502793 39.0435754,58.0648045 C38.3284916,58.4581006 37.3631285,58.2793296 36.5765363,58.1363128 C36.2547486,58.1005587 36.0402235,58.1363128 35.7541899,58.2435754 C35.5039106,58.4223464 35.2178771,58.7083799 34.9318436,58.922905 C34.4670391,59.101676 34.073743,59.4949721 33.5731844,59.5307263 C33.2871508,59.5307263 33.0011173,59.3519553 32.7150838,59.4234637 C32.3575419,59.8167598 32.1787709,60.4603352 31.6067039,60.6391061 C31.0346369,60.8178771 30.3195531,60.6748603 29.747486,60.5318436 C29.5687151,60.603352 29.4614525,60.7463687 29.2469274,60.7106145 C28.8536313,60.603352 28.4603352,60.4960894 28.1027933,60.2815642 C27.9597765,60.1385475 27.9240223,59.9597765 27.8882682,59.8167598 C27.8882682,59.5664804 28.1027933,59.3519553 28.2100559,59.1374302 C28.2458101,58.8871508 28.2458101,58.5296089 28.3530726,58.2793296 C28.5318436,57.8860335 28.9251397,57.6357542 29.3184358,57.4569832 C29.3541899,57.1709497 29.5329609,56.9206704 29.7832402,56.7776536 C30.2480447,56.5273743 30.7486034,55.9553073 31.3564246,56.277095 L32,56.8134078 C32.572067,56.5631285 32.4290503,55.9910615 32.7150838,55.526257 C32.8581006,55.2044693 33.0368715,54.8469274 33.3944134,54.8469274 C33.6446927,54.8111732 33.9307263,54.8826816 34.1810056,54.8469274 C34.5385475,54.7396648 34.9318436,54.596648 35.1821229,54.3106145 L35.1463687,54.0960894 C34.7888268,53.4167598 34.6815642,52.5944134 34.6458101,51.772067 C34.0022346,51.8435754 33.322905,51.950838 32.6435754,51.8078212 C31.6424581,51.6648045 30.677095,50.8782123 30.2837989,49.877095 C29.8547486,48.9117318 30.0335196,47.5530726 30.7128492,46.7307263 C31.249162,46.0871508 31.8569832,45.5150838 32.5005587,45.0145251 C32.2860335,44.9430168 32.0357542,44.9787709 31.8212291,44.9072626 C30.8916201,44.7642458 29.9620112,43.9418994 29.747486,43.0122905 C29.6044693,42.4044693 29.747486,41.8324022 30.0335196,41.3318436 C30.1407821,41.224581 30.2480447,41.1173184 30.4268156,41.1888268 C30.8916201,41.3675978 31.0346369,41.6178771 31.4636872,41.8324022 L31.7139665,41.975419 C32.8938547,42.3687151 34.4670391,42.3687151 34.9318436,43.8346369 C35.2178771,44.9787709 34.5027933,45.8368715 33.6804469,46.4804469 C33.0368715,46.9452514 32.3932961,47.5173184 32.0715084,48.196648 C31.9284916,48.6972067 32,49.1977654 32.4290503,49.5553073 C32.8581006,49.9843575 33.6089385,49.9843575 34.1452514,49.7698324 C35.1463687,49.3407821 36.0759777,48.6972067 36.9698324,48.0178771 C37.827933,47.3743017 38.8648045,47.1240223 39.9731844,47.0882682 C40.473743,46.9810056 40.9027933,46.7664804 41.2960894,46.4446927 C41.975419,45.8011173 42.6905028,45.2648045 43.5486034,45.0502793 C43.9418994,44.9787709 44.3351955,44.9430168 44.7284916,44.9072626 C45.0502793,44.7642458 45.2648045,44.3709497 45.5150838,44.1921788 C46.6949721,43.1553073 48.2681564,43.1910615 49.5195531,42.3687151 C50.2346369,41.8324022 51.0212291,41.4748603 51.950838,41.5106145 C52.3798883,41.5463687 52.7731844,41.6178771 53.1307263,41.7608939 L53.4167598,41.9039106 L53.4167598,41.9039106 Z M54.596648,54.0603352 C53.8100559,54.0960894 53.3094972,54.2748603 52.7731844,54.3463687 C52.8089385,54.8469274 53.0949721,55.2759777 53.4882682,55.8122905 C53.7027933,54.9899441 54.3821229,54.6681564 54.596648,54.0603352 L54.596648,54.0603352 Z" id="Shape" fill="#FFD300" sketch:type="MSShapeGroup"></path>
            <path d="M74.726257,54.2391061 C75.0837989,54.775419 75.298324,55.3117318 75.6201117,55.8837989 C75.9418994,55.2759777 76.227933,54.7039106 76.5139665,54.3463687 C76.4782123,54.3106145 75.5486034,54.4178771 74.726257,54.2391061 M75.477095,56.8849162 C75.4413408,56.9921788 75.3698324,57.027933 75.2268156,57.027933 C75.3340782,57.5284916 74.9765363,58.4581006 74.0826816,58.4938547 C73.4748603,58.5296089 72.473743,57.9217877 71.901676,57.8860335 C71.2938547,57.8502793 70.1854749,58.3150838 69.5418994,57.3497207 C68.6837989,58.3865922 67.6826816,58.6726257 66.824581,58.6368715 C66.3240223,58.6368715 65.7877095,58.350838 66.5385475,57.7072626 C64.8938547,58.2435754 64.8938547,57.1351955 65.1798883,56.9206704 C65.3586592,56.7776536 65.5731844,56.6703911 66.1810056,56.0625698 C68.4692737,53.6670391 67.6111732,49.5195531 70.1139665,46.7664804 C71.0793296,45.6938547 71.8659218,45.0860335 73.8324022,43.6916201 C74.5117318,43.2268156 75.1910615,42.547486 75.8346369,42.0826816 L75.8703911,42.1541899 L75.8703911,42.1184358 C76.2636872,41.8324022 76.6212291,41.5463687 77.0502793,41.4391061 C77.9441341,41.3318436 78.7664804,41.6178771 79.4458101,42.0826816 C79.803352,42.3329609 80.0893855,42.6189944 80.375419,42.9765363 C80.5899441,43.1910615 80.9117318,43.1910615 81.1977654,43.298324 C82.0201117,43.4413408 82.7351955,43.7631285 83.4145251,44.1921788 C83.8793296,44.4782123 84.2726257,44.9787709 84.8446927,45.0502793 C85.5240223,45.1575419 86.1318436,45.372067 86.7396648,45.7296089 C87.4547486,46.1944134 88.098324,46.7664804 88.9564246,46.9094972 C90.6726257,47.0882682 92.1027933,48.0536313 93.4614525,49.0189944 C94.2480447,49.4837989 95.1776536,50.0201117 96.1430168,49.698324 C96.4290503,49.5910615 96.6435754,49.3407821 96.7150838,49.0905028 C96.7865922,48.4469274 96.3932961,47.9463687 96,47.4815642 C95.1776536,46.5162011 93.747486,45.6938547 93.926257,44.2994413 C94.1765363,43.2625698 95.3206704,42.6547486 96.2145251,42.3687151 C96.7150838,42.1899441 97.322905,42.2614525 97.7519553,41.8324022 C97.9664804,41.6893855 98.073743,41.1888268 98.4312849,41.3675978 C98.7173184,41.5463687 98.7530726,41.9039106 98.7888268,42.2256983 C98.9318436,43.2268156 98.7173184,44.227933 97.7877095,44.8 C97.3586592,45.0860335 96.8938547,45.1932961 96.3932961,45.3005587 C97.1441341,45.9083799 97.8949721,46.6592179 98.3240223,47.5173184 C98.5743017,48.0178771 98.7173184,48.4469274 98.7530726,49.0189944 C98.7173184,50.0916201 98.073743,51.0212291 97.1441341,51.5575419 C96.6078212,51.8435754 96,51.950838 95.3564246,51.950838 C95.1061453,51.950838 94.8916201,51.8793296 94.677095,51.8793296 C94.7843575,52.3798883 94.7843575,53.0592179 94.677095,53.6312849 C94.6413408,53.9173184 94.4625698,54.2391061 94.4625698,54.596648 C94.6055866,54.775419 94.8201117,54.775419 94.9988827,54.775419 C95.4636872,54.775419 96.0357542,54.7396648 96.2860335,55.2402235 C96.5005587,55.7050279 96.6078212,56.2413408 96.7865922,56.7061453 C96.8581006,56.7776536 96.8938547,56.9564246 97.0011173,56.9206704 C97.322905,56.6346369 97.6446927,56.2413408 98.1094972,56.3486034 C98.5385475,56.6346369 98.9675978,56.9564246 99.396648,57.2782123 C99.5039106,57.3854749 99.5396648,57.5284916 99.575419,57.7072626 C99.9329609,57.8502793 100.397765,58.1005587 100.505028,58.5296089 C100.576536,58.8156425 100.540782,59.101676 100.612291,59.3519553 C100.719553,59.6379888 101.005587,59.9955307 100.791061,60.3530726 L100.648045,60.4603352 L99.2893855,60.8893855 C99.1821229,60.8893855 99.0748603,60.8178771 98.9675978,60.7106145 C98.252514,60.6748603 97.3944134,60.8893855 96.8223464,60.3888268 C96.572067,60.1743017 96.3932961,59.9240223 96.2145251,59.6379888 C95.7854749,59.852514 95.1776536,59.9955307 94.7486034,59.7094972 C93.8547486,59.0301676 92.9608939,58.350838 91.7452514,58.3865922 C91.2089385,58.4938547 90.5653631,58.6368715 90.0290503,58.4223464 C89.5284916,58.0648045 88.9564246,57.8860335 88.5631285,57.3497207 C87.9910615,56.7418994 87.9910615,56.0268156 87.7765363,55.2759777 C86.9899441,55.4547486 86.1318436,55.347486 85.3452514,55.3117318 C84.701676,55.2759777 84.0938547,55.3832402 83.4860335,55.526257 C82.7351955,55.6692737 81.9128492,55.7407821 81.126257,55.7050279 L80.7329609,55.9910615 C80.9117318,56.0268156 81.0905028,56.0268156 81.2335196,56.1698324 L81.3765363,56.3128492 C82.0201117,56.3843575 82.7709497,56.277095 83.3787709,56.4201117 C83.5217877,56.4558659 83.6648045,56.5988827 83.7363128,56.7418994 C83.8078212,56.9206704 83.8078212,57.1351955 83.7005587,57.2782123 C83.3787709,57.7072626 83.2,58.2078212 82.7709497,58.5653631 C82.6636872,58.7083799 82.3418994,58.5296089 82.3061453,58.7798883 C82.1631285,59.4234637 81.5553073,59.9597765 80.947486,60.1027933 C80.6972067,60.1385475 80.4111732,60.1027933 80.196648,60.0312849 C79.4458101,59.7810056 78.6949721,59.5664804 77.9441341,59.3519553 C77.6938547,59.2804469 77.4793296,59.0301676 77.2648045,58.8871508 C76.9430168,58.8871508 76.4782123,58.9944134 76.2636872,58.7083799 C76.1564246,58.6368715 76.049162,58.3865922 76.0134078,58.2793296 C75.7631285,57.9575419 75.5843575,57.3854749 75.477095,56.8849162" id="Shape" fill="#FFD300" sketch:type="MSShapeGroup"></path>
            <path d="M53.0592179,46.4089385 C53.273743,46.9452514 53.273743,47.6603352 53.1307263,48.2324022 C53.0949721,48.2681564 53.0592179,48.2681564 53.0234637,48.2324022 C52.9162011,47.7318436 52.8089385,47.2312849 52.6301676,46.7307263 C52.522905,46.4446927 52.1653631,46.1944134 52.3083799,45.8726257 C52.3798883,45.8011173 52.522905,45.8011173 52.6301676,45.8368715 C52.8089385,46.0156425 52.9162011,46.1944134 53.0592179,46.4089385 M58.7798883,51.4145251 C59.1731844,51.8793296 59.4592179,52.3798883 59.3162011,52.9877095 C59.2446927,53.0949721 59.2804469,53.3094972 59.101676,53.3452514 C59.0301676,53.3810056 58.9586592,53.3094972 58.9586592,53.2379888 C58.922905,52.9162011 58.922905,52.5586592 58.7441341,52.3083799 C58.5296089,52.0938547 58.2793296,51.6648045 57.9217877,51.6648045 C57.6715084,51.7363128 57.4927374,52.0223464 57.3497207,52.2011173 C57.3497207,52.2368715 57.3139665,52.2368715 57.2782123,52.2011173 C57.1351955,51.8435754 57.4212291,51.5575419 57.5284916,51.2715084 C57.7430168,51.0569832 57.7072626,50.449162 58.172067,50.627933 C58.4938547,50.8424581 58.5653631,51.2 58.7798883,51.4145251 M58.0290503,55.6692737 C58.0648045,55.8837989 58.0648045,56.2055866 57.8502793,56.3486034 C57.6357542,56.4201117 57.3497207,56.4558659 57.0994413,56.4201117 C57.027933,56.3843575 56.9564246,56.3486034 56.9921788,56.277095 C57.0994413,55.9553073 57.4212291,55.5977654 57.7787709,55.526257 C57.8502793,55.526257 57.9932961,55.526257 58.0290503,55.6692737 M31.9284916,42.6189944 C32.7865922,42.8335196 33.7162011,42.8335196 34.3597765,43.5128492 C34.7173184,43.9418994 34.7530726,44.6927374 34.4670391,45.1217877 C33.9664804,45.9798883 32.9653631,46.4089385 32.3575419,47.1597765 C31.7497207,47.6603352 31.5351955,48.4469274 31.7139665,49.2335196 C31.9284916,49.9128492 32.6078212,50.3776536 33.2871508,50.4134078 C34.3597765,50.449162 35.1463687,49.9128492 36.0044693,49.4122905 C36.8625698,48.8044693 37.649162,48.0178771 38.6145251,47.7675978 C39.2581006,47.5530726 39.9731844,47.6603352 40.6167598,47.4100559 C41.2960894,47.2670391 41.8324022,46.6949721 42.3687151,46.1944134 C42.9765363,45.6938547 43.6916201,45.4078212 44.4782123,45.4435754 C45.1932961,45.550838 45.5865922,44.9072626 46.0871508,44.4782123 C46.9094972,43.7273743 47.9821229,43.6558659 48.947486,43.2268156 C49.6268156,43.0122905 50.1631285,42.5117318 50.8067039,42.1899441 C51.4145251,41.9396648 52.2368715,41.8681564 52.8446927,42.1184358 C53.2379888,42.2972067 53.6670391,42.4759777 54.024581,42.7620112 L56.9206704,45.1932961 C56.9564246,45.3005587 57.0636872,45.372067 57.1351955,45.4078212 C57.9575419,46.4089385 58.8156425,47.3743017 59.4949721,48.4826816 C59.7094972,48.8759777 59.8167598,49.2692737 59.9240223,49.698324 C60.0670391,51.3430168 60.4960894,52.7731844 61.0324022,54.203352 C61.175419,54.4178771 61.4614525,54.596648 61.6044693,54.8111732 C62.0692737,55.4547486 62.3553073,56.277095 63.1061453,56.7061453 L63.5351955,56.9206704 C63.5709497,56.9564246 63.5709497,57.027933 63.5351955,57.0636872 L63.4636872,57.1351955 C62.5698324,57.2782123 61.8905028,56.7418994 61.4256983,56.098324 C61.1396648,55.526257 60.7463687,54.9184358 60.1027933,54.6681564 C60.0670391,54.6681564 60.0312849,54.7039106 60.0312849,54.7039106 C60.1027933,54.9184358 60.3173184,55.0614525 60.3888268,55.2402235 C60.6391061,55.6335196 60.8536313,56.0625698 60.9608939,56.4916201 C61.1039106,56.9564246 61.6044693,57.2782123 61.9977654,57.5284916 L62.5698324,57.8145251 C62.6413408,57.8502793 62.677095,57.9575419 62.6055866,58.0290503 L62.5340782,58.0648045 C61.5687151,58.1005587 60.7106145,57.7787709 60.0312849,57.0636872 C59.8882682,56.8849162 59.673743,56.7418994 59.4234637,56.7418994 C58.9944134,57.1351955 58.5653631,57.4927374 57.9932961,57.5284916 C57.3854749,57.4212291 56.7418994,57.4212291 56.2055866,57.6357542 C55.7050279,57.8145251 55.2044693,58.0290503 54.6681564,58.0290503 C54.4178771,58.0290503 54.1318436,57.9217877 54.024581,57.6715084 C54.024581,57.3497207 53.8100559,56.9921788 53.9888268,56.6703911 L54.3463687,56.1340782 C54.3463687,56.0625698 54.3106145,55.9910615 54.2391061,55.9910615 C54.0960894,55.9553073 53.8458101,56.2055866 53.7743017,55.9553073 C53.8100559,55.4189944 54.3463687,55.0614525 54.7039106,54.7039106 C54.775419,54.2748603 54.9541899,53.8815642 55.2759777,53.5240223 C55.2759777,53.4882682 55.2402235,53.4167598 55.1687151,53.4167598 C54.7039106,53.4882682 54.2391061,53.5955307 53.7385475,53.5955307 C53.3452514,53.8100559 52.8446927,53.9530726 52.3798883,53.8100559 C52.2726257,53.7385475 52.3083799,53.6312849 52.3441341,53.5597765 C52.8446927,52.8804469 53.0234637,52.0223464 52.8804469,51.2 C52.8446927,51.1642458 52.8446927,51.0927374 52.7731844,51.0927374 C52.701676,51.0927374 52.701676,51.1642458 52.6659218,51.2 C52.5586592,51.9865922 52.3083799,52.5944134 51.8793296,53.273743 C51.5575419,53.5955307 51.0569832,53.5955307 50.627933,53.7027933 C50.5206704,53.7385475 50.4134078,53.8458101 50.4134078,53.9530726 C50.4134078,54.2391061 50.5921788,54.4178771 50.6994413,54.6681564 L51.6290503,56.3843575 C51.6648045,56.849162 51.4502793,57.3139665 51.3430168,57.7430168 C51.3787709,57.8145251 51.4502793,57.7787709 51.5217877,57.7430168 C51.8435754,57.4569832 52.0581006,57.0636872 52.2011173,56.6346369 C52.2368715,56.4558659 52.1653631,56.2413408 52.0938547,56.098324 L51.1284916,54.1675978 C51.2,54.0603352 51.3430168,54.0603352 51.4502793,54.024581 C51.6648045,54.024581 51.8793296,54.1318436 52.0938547,54.203352 C52.3083799,54.775419 52.5586592,55.3832402 52.9519553,55.8837989 C53.0234637,56.2055866 53.1307263,56.6346369 52.9162011,56.8849162 C52.701676,57.3139665 52.4871508,57.6715084 52.2011173,58.0648045 C51.950838,58.3150838 51.5932961,58.2793296 51.2357542,58.3150838 L51.1284916,58.3150838 C50.2703911,58.7798883 49.3765363,59.0659218 48.4469274,59.3519553 C48.0536313,59.5307263 47.5888268,59.3877095 47.2670391,59.1374302 C46.9452514,58.8871508 46.8022346,58.5296089 46.5877095,58.2078212 C46.3374302,57.8860335 45.9441341,58.172067 45.6581006,57.9932961 C45.4078212,57.6 45.1575419,57.2067039 44.9430168,56.7776536 C44.9430168,56.6703911 44.9430168,56.5631285 45.0502793,56.4916201 C45.372067,56.3843575 45.7296089,56.3843575 46.0871508,56.3486034 C46.4089385,56.3128492 46.7664804,56.3843575 46.9810056,56.5988827 C47.4100559,57.0994413 47.5888268,57.7787709 48.2324022,58.1005587 C48.7329609,58.1363128 49.1620112,57.9932961 49.5910615,57.7787709 C49.8413408,57.6357542 50.1273743,57.4212291 50.1273743,57.0994413 C50.0916201,56.4558659 49.6625698,55.9553073 49.126257,55.5977654 C48.5899441,55.3117318 48.0178771,54.9184358 47.624581,54.4178771 C47.4100559,54.1318436 47.3743017,53.8100559 47.2670391,53.5240223 C47.2312849,53.452514 47.0882682,53.452514 47.052514,53.4882682 C46.8379888,53.6670391 47.0167598,53.9888268 47.0167598,54.203352 C47.052514,54.3463687 47.1240223,54.5251397 47.052514,54.6324022 C46.7307263,54.8826816 46.301676,54.7396648 45.9083799,54.775419 C45.1217877,54.7396648 44.3709497,54.4178771 43.5486034,54.4893855 C42.7620112,54.5251397 41.6893855,55.0614525 41.1173184,54.2748603 C40.8312849,53.5240223 40.9027933,52.6301676 41.0458101,51.8793296 C41.0458101,51.8078212 40.9743017,51.7363128 40.9027933,51.7363128 C40.8312849,51.7005587 40.7597765,51.7363128 40.7240223,51.8078212 C40.5094972,52.5586592 40.473743,53.3810056 40.2949721,54.1675978 C40.0089385,54.8469274 39.5083799,55.5620112 38.8290503,55.9195531 C38.2212291,56.2413408 37.5061453,56.3486034 36.7553073,56.4201117 C35.396648,56.4558659 34.1452514,56.7061453 33.2871508,57.8860335 C33.2156425,57.9932961 33.1083799,58.1005587 33.1441341,58.2435754 C33.1798883,58.2793296 33.2871508,58.3150838 33.322905,58.2793296 C34.252514,57.2424581 35.4324022,56.8134078 36.7910615,56.8849162 C38.0782123,56.8849162 39.3653631,56.6703911 40.1877095,55.5620112 C40.4022346,55.3117318 40.5452514,55.0614525 40.7240223,54.775419 C40.8670391,54.775419 40.9743017,54.9541899 41.0815642,55.0256983 C41.1173184,55.4189944 40.7955307,55.6692737 40.652514,55.9910615 C40.473743,56.3486034 40.2949721,56.7776536 39.9374302,56.9921788 C39.5083799,57.0994413 39.150838,57.3854749 38.7575419,57.6 C38.3642458,57.7787709 37.8636872,57.8502793 37.3988827,57.7430168 C36.8268156,57.6357542 36.0402235,57.4927374 35.4681564,57.7430168 C35.1821229,57.9217877 34.9318436,58.2435754 34.6458101,58.4223464 C34.252514,58.6011173 33.8949721,58.922905 33.4301676,58.8871508 C33.1083799,58.8156425 32.7150838,58.6011173 32.4290503,58.8871508 C32.0715084,59.2089385 32,59.7810056 31.5351955,59.9955307 C30.9988827,60.2815642 30.4268156,59.9955307 29.8905028,59.9597765 C29.9620112,59.4234637 30.0335196,58.922905 30.3910615,58.5296089 C30.6055866,58.4938547 30.7843575,58.4581006 30.9631285,58.3150838 C31.1776536,58.1363128 31.3206704,57.8860335 31.4636872,57.6357542 C31.9284916,57.3497207 32.4648045,57.1351955 32.750838,56.6346369 C32.9653631,56.1698324 32.9653631,55.7407821 33.322905,55.3117318 L33.501676,55.2402235 L34.4670391,55.1687151 C34.8603352,54.9899441 35.2178771,54.8111732 35.575419,54.5251397 C35.6826816,54.4178771 35.7184358,54.2391061 35.6826816,54.0603352 C35.5039106,53.5955307 35.3608939,53.273743 35.2536313,52.7731844 C35.1463687,52.2726257 35.2178771,51.772067 35.1463687,51.2 C35.1106145,51.1642458 35.0748603,51.0569832 35.003352,51.0569832 C34.3597765,51.2 33.7519553,51.3787709 33.0368715,51.2715084 C32.0715084,51.1642458 31.0703911,50.5206704 30.7128492,49.5553073 C30.3910615,48.7329609 30.4625698,47.5530726 31.0703911,46.873743 C31.6424581,46.1586592 32.3575419,45.6223464 33.0726257,45.0145251 C33.1798883,44.9430168 33.1798883,44.8 33.2156425,44.6927374 C33.2156425,44.5497207 33.0726257,44.4424581 32.9653631,44.3709497 C32.5363128,44.2636872 32.0357542,44.4067039 31.6067039,44.227933 C30.8558659,43.9776536 30.2837989,43.2625698 30.1765363,42.4759777 C30.1407821,42.1184358 30.2122905,41.8324022 30.3910615,41.5463687 C30.9631285,42.0469274 31.3921788,42.4759777 31.9284916,42.6189944 M29.7832402,58.6011173 L29.7832402,58.7083799 C29.6044693,59.1374302 29.4972067,59.6379888 29.3541899,60.1385475 C29.0324022,60.1027933 28.7463687,59.9955307 28.4960894,59.8882682 C28.424581,59.8167598 28.4960894,59.7452514 28.4960894,59.673743 C28.8178771,59.3877095 28.7106145,59.0301676 28.7821229,58.6368715 C28.8178771,58.4223464 29.0324022,58.2435754 29.2469274,58.1363128 C29.4972067,58.172067 29.6402235,58.4223464 29.7832402,58.6011173 M31.3564246,57.0994413 C31.1776536,57.4569832 30.9273743,57.8860335 30.5340782,58.1005587 C30.3910615,58.1363128 30.2122905,58.1363128 30.0692737,58.0648045 C29.9977654,57.9932961 29.8547486,57.9217877 29.8547486,57.7787709 C29.8905028,57.6357542 29.8189944,57.4569832 29.9620112,57.3854749 C30.2480447,57.2067039 30.5340782,57.027933 30.8201117,56.7776536 C30.8916201,56.7418994 31.0346369,56.7061453 31.0703911,56.7776536 C31.2134078,56.8849162 31.3206704,56.9564246 31.3564246,57.0994413 M49.2692737,56.9564246 C49.3050279,57.0994413 49.5195531,57.2782123 49.3765363,57.4212291 C49.0905028,57.6357542 48.7687151,57.7787709 48.375419,57.7430168 C48.0893855,57.5284916 48.1251397,57.1351955 47.8748603,56.849162 C47.803352,56.6346369 47.4815642,56.6346369 47.5530726,56.4201117 L47.6603352,56.3486034 C48.0536313,56.3486034 48.4469274,56.3486034 48.8402235,56.277095 C49.2335196,56.2413408 49.126257,56.7061453 49.2692737,56.9564246" id="Shape" fill="#E21B4D" sketch:type="MSShapeGroup"></path>
            <path d="M71.8659218,51.1284916 C72.0804469,51.4145251 72.2592179,51.7005587 72.4022346,52.0581006 C72.4379888,52.1296089 72.4022346,52.2011173 72.3664804,52.2726257 C72.3307263,52.3441341 72.2592179,52.4156425 72.1519553,52.3441341 C71.901676,52.2726257 71.9374302,51.8793296 71.6156425,51.9150838 C71.4011173,51.9150838 71.2581006,52.0938547 71.0793296,52.2011173 C70.7575419,52.4871508 70.3284916,52.7731844 70.2569832,53.2022346 C70.1854749,53.3452514 70.2212291,53.5955307 70.0782123,53.6670391 C70.0067039,53.7027933 69.8994413,53.6312849 69.8994413,53.5597765 C69.8636872,52.9877095 70.0424581,52.4513966 70.4357542,52.0581006 C70.8290503,51.7363128 71.1150838,51.2715084 71.4368715,50.8782123 C71.6513966,50.8424581 71.7944134,50.9854749 71.8659218,51.1284916 M72.0089385,55.8837989 C72.0804469,56.0268156 72.2234637,56.2055866 72.1162011,56.3843575 C71.9731844,56.4916201 71.722905,56.4201117 71.5441341,56.4201117 C71.3296089,56.3128492 71.2581006,56.0268156 71.2581006,55.7765363 C71.2581006,55.7050279 71.2581006,55.6692737 71.3296089,55.5977654 C71.5798883,55.5977654 71.8301676,55.6692737 72.0089385,55.8837989 M77.372067,44.9430168 C77.4793296,45.0860335 77.372067,45.2290503 77.3005587,45.3363128 C76.8,45.8011173 76.1921788,46.301676 75.8346369,46.873743 C75.6916201,47.052514 75.5843575,47.2670391 75.5128492,47.4815642 C75.5128492,47.5173184 75.477095,47.5173184 75.4413408,47.5173184 C75.3340782,47.2312849 75.477095,46.9094972 75.5486034,46.6234637 C75.7988827,45.9441341 76.3709497,45.3005587 76.9787709,44.8357542 C77.0502793,44.8 77.3005587,44.7642458 77.372067,44.9430168 M79.4100559,42.6547486 C79.803352,42.9050279 79.9463687,43.4413408 80.4111732,43.5486034 C81.1977654,43.7273743 81.9843575,43.9061453 82.6994413,44.2636872 C83.2,44.5139665 83.6648045,44.8715084 84.1296089,45.2648045 C84.5586592,45.4793296 85.0949721,45.4793296 85.5597765,45.6223464 C86.2391061,45.8011173 86.775419,46.301676 87.3832402,46.6949721 C88.1698324,47.3027933 89.2782123,47.2312849 90.172067,47.624581 C91.6022346,48.0893855 92.7463687,49.1977654 94.0692737,49.8413408 C94.7486034,50.1988827 95.7854749,50.3418994 96.4648045,49.9486034 C96.9296089,49.6268156 97.2156425,49.1977654 97.1083799,48.5899441 C96.8581006,47.1240223 95.249162,46.3731844 94.498324,45.1575419 C94.3553073,44.8715084 94.2480447,44.4782123 94.3195531,44.1564246 C94.6055866,43.4413408 95.3564246,43.0480447 96,42.7977654 C96.5005587,42.547486 97.1441341,42.6189944 97.6089385,42.3329609 C97.7877095,42.2256983 97.9307263,42.0826816 98.0379888,41.975419 C98.1452514,41.975419 98.1452514,42.0826816 98.1810056,42.1541899 C98.3240223,43.0122905 98.1810056,43.9061453 97.4301676,44.4067039 C97.1441341,44.6212291 96.7865922,44.6927374 96.4648045,44.7642458 C96.1787709,44.8715084 95.6067039,44.6569832 95.6424581,45.1575419 C95.7139665,45.4078212 95.9284916,45.550838 96.1072626,45.7296089 C97.1083799,46.5519553 98.0379888,47.624581 98.1452514,48.9117318 C98.1810056,49.9128492 97.501676,50.7709497 96.6435754,51.2 C96,51.4502793 95.2134078,51.5575419 94.5340782,51.3787709 C94.3553073,51.3430168 94.0692737,51.1642458 93.926257,51.4145251 C93.8905028,51.7005587 94.0692737,51.9150838 94.0692737,52.1653631 C94.1407821,52.6301676 94.1407821,53.2379888 93.9977654,53.7027933 C93.926257,54.0603352 93.5687151,54.4893855 93.8905028,54.8469274 C94.2122905,55.347486 94.8558659,55.2044693 95.3921788,55.2759777 C95.6782123,55.3117318 95.7854749,55.6335196 95.8569832,55.8480447 C95.9642458,56.1340782 95.9642458,56.4558659 96.0715084,56.6703911 C96.0715084,57.2067039 96.6793296,57.4212291 96.9653631,57.7787709 C97.322905,58.172067 97.6446927,58.8513966 98.252514,58.8156425 C98.4670391,59.2446927 98.5743017,59.6379888 98.6458101,60.1385475 L98.5743017,60.2100559 C98.073743,60.2100559 97.3944134,60.3530726 97.0368715,59.9955307 C96.6078212,59.7094972 96.4648045,58.922905 95.8212291,59.1374302 C95.5351955,59.3519553 95.1418994,59.4234637 94.8201117,59.2804469 C94.498324,59.1731844 94.2837989,58.8871508 93.9977654,58.7083799 C93.1396648,58.0648045 91.9955307,57.7430168 90.8871508,57.9932961 C90.2435754,58.172067 89.7430168,57.7072626 89.2424581,57.4212291 C88.5631285,57.1351955 88.3843575,56.4201117 88.2413408,55.8122905 L88.1340782,55.0614525 C88.1340782,54.9899441 88.2055866,54.9184358 88.277095,54.8826816 L88.3843575,54.8826816 C88.7776536,55.7765363 89.5284916,56.7776536 90.4938547,57.0994413 C91.3877095,57.4569832 92.2100559,56.9921788 93.175419,57.1709497 C94.0692737,57.2782123 94.7843575,57.8502793 95.4636872,58.3865922 C95.5351955,58.3865922 95.5709497,58.350838 95.6067039,58.2793296 L95.6067039,58.2078212 C94.7843575,57.1709497 93.6402235,56.6346369 92.3173184,56.7418994 C91.2089385,56.9564246 90.1363128,56.5988827 89.4927374,55.6692737 C89.1351955,55.1329609 88.8849162,54.5608939 88.7776536,53.9530726 C88.6703911,53.2379888 88.5273743,52.4513966 88.277095,51.8078212 C88.2055866,51.772067 88.1340782,51.7005587 88.0625698,51.7363128 L87.9910615,51.8435754 C88.098324,52.522905 88.3128492,53.3452514 88.0625698,54.0603352 C87.8837989,54.6324022 87.3117318,54.8469274 86.775419,54.8826816 C86.2391061,54.9184358 85.7385475,54.8111732 85.1664804,54.8111732 C83.8793296,54.775419 82.7351955,55.2759777 81.4122905,55.1687151 C81.5195531,54.8469274 81.7340782,54.5251397 81.6268156,54.1675978 C81.5910615,54.0960894 81.4837989,54.0960894 81.4122905,54.0960894 C81.1620112,54.2391061 81.1977654,54.5608939 81.0547486,54.775419 C80.7687151,55.2402235 80.2324022,55.6692737 79.6960894,55.7765363 C79.3027933,56.0625698 78.9452514,56.4558659 78.6234637,56.8134078 C78.5162011,56.9206704 78.5162011,57.1351955 78.5519553,57.2782123 C78.8022346,57.9217877 79.5530726,57.9932961 80.1251397,58.172067 C80.4111732,58.2078212 80.6614525,58.1005587 80.8044693,57.8502793 C81.0547486,57.4569832 81.0905028,56.8134078 81.6625698,56.7418994 L82.9139665,56.7418994 C83.0212291,56.7776536 83.0927374,56.849162 83.1642458,56.9564246 L83.1284916,57.1351955 C82.8424581,57.4569832 82.7351955,57.9217877 82.3776536,58.1363128 C82.1631285,58.2078212 81.9128492,58.1363128 81.7698324,58.3150838 C81.698324,58.7441341 81.5910615,59.2089385 81.1620112,59.4234637 C80.8402235,59.7094972 80.375419,59.5664804 80.0178771,59.4592179 C79.3385475,59.2089385 78.6592179,59.0659218 77.9798883,58.8513966 C77.6938547,58.7798883 77.5865922,58.4223464 77.2648045,58.350838 C76.9787709,58.2793296 76.6569832,58.4938547 76.4067039,58.2435754 C76.2636872,57.9217877 76.1921788,57.7072626 76.1206704,57.3497207 C76.0134078,57.1351955 75.9418994,56.8849162 75.9061453,56.6346369 C75.8703911,56.4201117 75.9061453,56.277095 75.9776536,56.098324 L76.9072626,54.4178771 C76.9787709,54.3106145 77.0502793,54.203352 77.1575419,54.1675978 C77.372067,54.203352 77.6223464,54.3106145 77.8368715,54.4178771 L77.8011173,54.5251397 L76.8357542,55.9910615 C76.6212291,56.4558659 76.8357542,56.9921788 77.0502793,57.3854749 C77.0860335,57.4212291 77.1217877,57.4927374 77.1575419,57.4569832 C77.1217877,57.1709497 77.0860335,56.8849162 77.1575419,56.5631285 C77.2290503,56.277095 77.4078212,56.0268156 77.550838,55.7765363 L78.301676,54.6681564 C78.3731844,54.4893855 78.3731844,54.203352 78.2301676,54.024581 C77.9083799,53.7027933 77.4435754,53.5955307 77.1575419,53.1664804 C76.5497207,52.3441341 76.4782123,51.3787709 76.4067039,50.3418994 C76.4067039,50.2703911 76.3351955,50.1631285 76.227933,50.1273743 C76.1564246,50.0916201 76.0849162,50.1988827 76.049162,50.2346369 C75.8703911,50.9139665 75.9776536,51.7363128 76.1564246,52.3441341 C76.2636872,52.8089385 76.4782123,53.273743 76.6927374,53.7027933 C76.7284916,53.7743017 76.6569832,53.8815642 76.5854749,53.9173184 C76.0849162,53.9530726 75.5843575,53.9173184 75.1195531,53.8458101 C74.4759777,53.7385475 74.0111732,53.2379888 73.4748603,52.8446927 C73.403352,52.8089385 73.3675978,52.8804469 73.3318436,52.9162011 C73.4748603,53.6312849 74.2614525,54.0603352 74.5117318,54.7039106 C74.6547486,55.2402235 75.1910615,55.6335196 75.298324,56.2055866 C75.298324,56.277095 75.2268156,56.3843575 75.1553073,56.4201117 C74.9765363,56.4558659 74.7977654,56.3486034 74.6189944,56.4558659 C74.5832402,56.7776536 74.7977654,57.0994413 74.6547486,57.3854749 C74.4759777,57.6715084 74.2256983,57.9932961 73.9039106,57.9932961 C73.2603352,57.7787709 72.6167598,57.4927374 71.9731844,57.3139665 C71.5083799,57.2782123 71.0435754,57.3497207 70.6145251,57.3854749 C70.1854749,57.3139665 69.8994413,56.9206704 69.5776536,56.7061453 C69.4703911,56.6703911 69.3631285,56.6703911 69.2916201,56.7418994 C68.5765363,57.4569832 67.7899441,58.2435754 66.7173184,58.2078212 C66.6458101,58.2078212 66.6100559,58.1363128 66.6100559,58.0648045 L66.6100559,57.9932961 C67.0748603,57.5642458 67.6469274,57.1351955 67.8614525,56.5273743 C68.0044693,56.0268156 68.4335196,55.6692737 68.6122905,55.2044693 C68.6480447,55.1329609 68.5765363,55.0972067 68.5050279,55.0614525 L68.3977654,55.1329609 C67.8614525,55.6692737 67.4681564,56.277095 67.0748603,56.849162 C66.6815642,57.2424581 66.1094972,57.4927374 65.501676,57.3497207 C65.4301676,57.3139665 65.4301676,57.2067039 65.4659218,57.1351955 C67.6826816,55.7765363 67.9329609,53.3452514 68.5407821,51.1284916 C68.9698324,49.6625698 69.2916201,48.1608939 70.4357542,46.9810056 C72.1519553,45.0860335 74.2972067,43.9776536 76.1921788,42.3329609 C76.4782123,42.0826816 76.7642458,41.8324022 77.1217877,41.8324022 C78.0513966,41.7608939 78.7664804,42.1184358 79.4100559,42.6547486 M99.8256983,58.4581006 C100.004469,58.7083799 99.9329609,59.101676 100.004469,59.3877095 C100.040223,59.6022346 100.326257,59.7810056 100.18324,59.9955307 L99.396648,60.2458101 C99.2536313,60.2458101 99.3251397,60.0670391 99.2536313,59.9955307 C99.1821229,59.5307263 99.0748603,59.2089385 98.9318436,58.7798883 C98.8960894,58.5296089 99.1463687,58.350838 99.3251397,58.2078212 C99.5039106,58.1363128 99.6469274,58.350838 99.8256983,58.4581006 M98.0022346,56.849162 C98.2882682,57.0994413 98.6815642,57.2782123 98.8960894,57.6 C98.9318436,57.7430168 98.824581,57.8860335 98.7530726,57.9932961 C98.6458101,58.1005587 98.5027933,58.172067 98.3240223,58.172067 C98.1452514,58.172067 98.0022346,58.0648045 97.8949721,57.9217877 C97.7162011,57.6357542 97.4659218,57.3854749 97.3944134,57.0994413 C97.501676,56.9206704 97.7519553,56.6346369 98.0022346,56.849162 M80.7687151,56.5631285 C80.7329609,56.9206704 80.6256983,57.2424581 80.4826816,57.5642458 C80.375419,57.7787709 80.0536313,57.7072626 79.8391061,57.6715084 C79.624581,57.6 79.2670391,57.5642458 79.2312849,57.2424581 C79.1955307,56.9564246 79.3385475,56.6703911 79.4815642,56.4558659 C79.803352,56.4201117 80.196648,56.4916201 80.5184358,56.4201117 C80.6614525,56.4201117 80.7687151,56.4558659 80.7687151,56.5631285" id="Shape" fill="#E21B4D" sketch:type="MSShapeGroup"></path>
            <path d="M133.255866,0.715083799 C133.899441,0.715083799 134.435754,0.929608939 134.864804,1.39441341 C135.293855,1.82346369 135.544134,2.39553073 135.544134,3.00335196 C135.544134,3.64692737 135.329609,4.18324022 134.864804,4.6122905 C134.435754,5.07709497 133.863687,5.29162011 133.255866,5.29162011 C132.612291,5.29162011 132.075978,5.07709497 131.611173,4.6122905 C131.182123,4.18324022 130.931844,3.61117318 130.931844,3.00335196 C130.931844,2.35977654 131.146369,1.82346369 131.611173,1.39441341 C132.075978,0.965363128 132.612291,0.715083799 133.255866,0.715083799 L133.255866,0.715083799 Z M135.93743,3.00335196 C135.93743,2.28826816 135.687151,1.64469274 135.150838,1.10837989 C134.614525,0.607821229 134.006704,0.321787709 133.255866,0.321787709 C132.505028,0.321787709 131.897207,0.572067039 131.360894,1.10837989 C130.824581,1.64469274 130.574302,2.25251397 130.574302,3.00335196 C130.574302,3.75418994 130.824581,4.36201117 131.360894,4.89832402 C131.897207,5.43463687 132.505028,5.6849162 133.255866,5.6849162 C134.006704,5.6849162 134.614525,5.43463687 135.150838,4.89832402 C135.651397,4.39776536 135.93743,3.75418994 135.93743,3.00335196 L135.93743,3.00335196 Z M133.97095,2.43128492 C133.97095,2.64581006 133.863687,2.82458101 133.649162,2.89608939 C133.541899,2.93184358 133.363128,2.96759777 133.148603,2.96759777 L132.683799,2.96759777 L132.683799,1.89497207 L133.112849,1.89497207 C133.398883,1.89497207 133.613408,1.93072626 133.756425,2.00223464 C133.899441,2.10949721 133.97095,2.21675978 133.97095,2.43128492 L133.97095,2.43128492 Z M132.18324,1.53743017 L132.18324,4.46927374 L132.683799,4.46927374 L132.683799,3.32513966 L133.077095,3.32513966 C133.363128,3.32513966 133.541899,3.36089385 133.649162,3.43240223 C133.827933,3.5396648 133.935196,3.75418994 133.935196,4.11173184 L133.935196,4.32625698 L133.935196,4.39776536 L133.935196,4.43351955 L133.935196,4.46927374 L134.435754,4.46927374 L134.4,4.43351955 C134.4,4.39776536 134.364246,4.36201117 134.364246,4.29050279 L134.364246,4.07597765 L134.364246,3.86145251 C134.364246,3.71843575 134.292737,3.57541899 134.221229,3.39664804 C134.113966,3.25363128 133.935196,3.14636872 133.72067,3.11061453 C133.899441,3.07486034 134.042458,3.03910615 134.149721,2.96759777 C134.328492,2.8603352 134.435754,2.64581006 134.435754,2.39553073 C134.435754,2.03798883 134.292737,1.7877095 133.97095,1.64469274 C133.792179,1.57318436 133.541899,1.53743017 133.148603,1.53743017 L132.18324,1.53743017 L132.18324,1.53743017 Z" id="Shape" fill="#E21B4D" sketch:type="MSShapeGroup"></path>
        </g>
    </g>
</svg>