<?xml version="1.0" encoding="UTF-8" standalone="no"?>
<svg width="107px" height="104px" viewBox="0 0 107 104" version="1.1" xmlns="http://www.w3.org/2000/svg" xmlns:xlink="http://www.w3.org/1999/xlink" xmlns:sketch="http://www.bohemiancoding.com/sketch/ns">
    <!-- Generator: Sketch 3.3.3 (12072) - http://www.bohemiancoding.com/sketch -->
    <title>Shape</title>
    <desc>Created with Sketch.</desc>
    <defs></defs>
    <g id="Page-1" stroke="none" stroke-width="1" fill="none" fill-rule="evenodd" sketch:type="MSPage">
        <g id="flint" sketch:type="MSLayerGroup" fill="#000000" opacity="0.54">
            <g id="Welcome" sketch:type="MSShapeGroup">
                <g id="Desktop-HD">
                    <g id="Group">
                        <g id="flint-+-fmm-+-rehabstudio-+-FRONT-END-DEVELOPER-3-+-2015">
                            <g id="flint-+-fmm-+-rehabstudio">
                                <g id="flint">
                                    <g id="Page-1-+-Flint-Studios">
                                        <g id="Page-1">
                                            <g id="flint-logo">
                                                <g id="Group">
                                                    <path d="M63.4491228,32.6857143 C68.5175439,33.0571429 90.8561403,33.6142857 100.805263,23.5857143 C112.068421,12.0714286 102.494737,2.6 100.617544,1.11428571 C98.7403509,-0.371428571 97.9894737,1.67142857 97.9894737,1.67142857 L97.2385964,3.15714286 C88.2280702,18.7571429 58.568421,20.8 38.6701754,23.2142857 C18.7719298,25.8142857 9.38596491,36.9571429 9.38596491,36.9571429 C9.38596491,36.9571429 7.50877193,38.6285714 8.63508772,39.9285714 C9.76140351,41.2285714 13.1403509,39.7428571 13.1403509,39.7428571 C22.1508772,35.2857143 35.4789473,33.6142857 46.1789473,32.8714286 C41.6736842,37.8857143 39.4210527,46.9857143 37.3561403,62.9571429 C26.6561403,63.7 16.7070176,64.4428571 9.01052631,70.3857143 C-3.56666667,80.2285714 -2.62807018,97.1285714 10.3245614,102.328571 C23.8403509,107.714286 40.3596491,98.4285714 48.9947369,72.9857143 C53.8754386,72.9857143 58.0052631,72.6142857 60.2578948,71.1285714 C66.077193,67.0428571 62.5105263,57.9428571 62.5105263,57.9428571 C59.131579,59.4285714 55.5649123,60.5428571 51.9982457,61.1 L52.5614036,58.6857143 C55.377193,43.8285714 58.0052631,37.1428571 59.8824561,34.3571429 C60.2578948,33.8 61.3842106,32.5 63.4491228,32.6857143 L63.4491228,32.6857143 Z M13.1403509,98.8 C4.50526316,95.6428571 4.69298246,82.2714286 12.7649123,76.3285714 C17.4578948,72.8 26.6561403,72.6142857 35.6666667,72.8 C30.9736842,93.0428571 22.1508772,102.142857 13.1403509,98.8 L13.1403509,98.8 L13.1403509,98.8 Z" id="Shape"></path>
                                                </g>
                                            </g>
                                        </g>
                                    </g>
                                </g>
                            </g>
                        </g>
                    </g>
                </g>
            </g>
        </g>
    </g>
</svg>