<?xml version="1.0" encoding="UTF-8" standalone="no"?>
<svg width="91px" height="89px" viewBox="0 0 91 89" version="1.1" xmlns="http://www.w3.org/2000/svg" xmlns:xlink="http://www.w3.org/1999/xlink" xmlns:sketch="http://www.bohemiancoding.com/sketch/ns">
    <!-- Generator: Sketch 3.3.3 (12072) - http://www.bohemiancoding.com/sketch -->
    <title>Shape</title>
    <desc>Created with Sketch.</desc>
    <defs></defs>
    <g id="Page-1" stroke="none" stroke-width="1" fill="none" fill-rule="evenodd" sketch:type="MSPage">
        <path d="M54.0995628,27.9480941 C58.4202389,28.2647258 77.4632182,28.7396732 85.944545,20.1906187 C95.5460473,10.3750376 87.3847706,2.30093057 85.7845202,1.03440397 C84.1842698,-0.232122615 83.5441696,1.50935145 83.5441696,1.50935145 L82.9040694,2.77587804 C75.2228677,16.0744073 49.9389119,17.8158813 32.976258,19.873987 C16.0136041,22.0904086 8.01235228,31.5893581 8.01235228,31.5893581 C8.01235228,31.5893581 6.41210191,33.0142004 7.37225213,34.1224112 C8.33240235,35.2306219 11.212853,33.9640953 11.212853,33.9640953 C18.8940548,30.1645156 30.2558323,28.7396732 39.3772594,28.1064099 C35.5366586,32.3809372 33.6163582,40.1384125 31.8560827,53.7535734 C22.7346556,54.3868367 14.2533288,55.0200999 7.6923022,60.0862064 C-3.02937526,68.476945 -2.22925008,82.883685 8.81247746,87.3165277 C20.3342801,91.9076872 34.4164833,83.9918958 41.7776351,62.3026279 C45.938286,62.3026279 49.4588367,61.9859962 51.3791373,60.7194696 C56.3399134,57.2365215 53.2994377,49.4790461 53.2994377,49.4790461 C50.4189871,50.7455727 47.3785113,51.6954676 44.3380357,52.1704151 L44.8181108,50.1123094 C47.2184863,37.4470435 49.4588367,31.7476738 51.0590871,29.3729365 C51.3791373,28.897989 52.3392875,27.7897782 54.0995628,27.9480941 L54.0995628,27.9480941 L54.0995628,27.9480941 Z M11.212853,84.3085274 C3.85170132,81.6171584 4.01172636,70.2184191 10.892803,65.1523127 C14.8934289,62.1443121 22.7346556,61.9859962 30.4158574,62.1443121 C26.4152315,79.4007368 18.8940548,87.1582121 11.212853,84.3085274 L11.212853,84.3085274 L11.212853,84.3085274 Z" id="Shape" opacity="0.54" fill="#000000" sketch:type="MSShapeGroup"></path>
    </g>
</svg>