<?xml version="1.0" encoding="UTF-8" standalone="no"?>
<svg width="102px" height="100px" viewBox="0 0 102 100" version="1.1" xmlns="http://www.w3.org/2000/svg" xmlns:xlink="http://www.w3.org/1999/xlink" xmlns:sketch="http://www.bohemiancoding.com/sketch/ns">
    <!-- Generator: Sketch 3.2.2 (9983) - http://www.bohemiancoding.com/sketch -->
    <title>flint logo</title>
    <desc>Created with Sketch.</desc>
    <defs></defs>
    <g id="Page-1" stroke="none" stroke-width="1" fill="none" fill-rule="evenodd" sketch:type="MSPage">
        <g id="flint-logo" sketch:type="MSLayerGroup" fill="#FFFFFF">
            <g id="Group" sketch:type="MSShapeGroup">
                <path d="M57.0842105,33.0357143 C57.4421053,32.5 58.5157895,31.25 60.4842105,31.4285714 C65.3157895,31.7857143 86.6105263,32.3214286 96.0947368,22.6785714 C106.831579,11.6071429 97.7052632,2.5 95.9157895,1.07142857 C94.1263158,-0.357142857 93.4105263,1.60714286 93.4105263,1.60714286 L92.6947368,3.03571429 C84.1052632,18.0357143 55.8315789,20 36.8631579,22.3214286 C17.8947368,24.8214286 8.94736842,35.5357143 8.94736842,35.5357143 C8.94736842,35.5357143 7.15789474,37.1428571 8.23157895,38.3928571 C9.30526316,39.6428571 12.5263158,38.2142857 12.5263158,38.2142857 C21.1157895,33.9285714 33.8210526,32.3214286 44.0210526,31.6071429 C39.7263158,36.4285714 37.5789474,45.1785714 35.6105263,60.5357143 C25.4105263,61.25 15.9263158,61.9642857 8.58947368,67.6785714 C-3.4,77.1428571 -2.50526316,93.3928571 9.84210526,98.3928571 C22.7263158,103.571429 38.4736842,94.6428571 46.7052632,70.1785714 C51.3578947,70.1785714 55.2947368,69.8214286 57.4421053,68.3928571 C62.9894737,64.4642857 59.5894737,55.7142857 59.5894737,55.7142857 C56.3684211,57.1428571 52.9684211,58.2142857 49.5684211,58.75 L50.1052632,56.4285714 C52.7894737,42.1428571 55.2947368,35.7142857 57.0842105,33.0357143 L57.0842105,33.0357143 Z M12.5263158,95 C4.29473684,91.9642857 4.47368421,79.1071429 12.1684211,73.3928571 C16.6421053,70 25.4105263,69.8214286 34,70 C29.5263158,89.4642857 21.1157895,98.2142857 12.5263158,95 L12.5263158,95 Z" id="Shape"></path>
            </g>
        </g>
    </g>
</svg>