<?xml version="1.0" encoding="UTF-8" standalone="no"?>
<svg width="119px" height="104px" viewBox="0 0 119 104" version="1.1" xmlns="http://www.w3.org/2000/svg" xmlns:xlink="http://www.w3.org/1999/xlink" xmlns:sketch="http://www.bohemiancoding.com/sketch/ns">
    <!-- Generator: Sketch 3.3.3 (12072) - http://www.bohemiancoding.com/sketch -->
    <title>Shape-4</title>
    <desc>Created with Sketch.</desc>
    <defs></defs>
    <g id="Page-1" stroke="none" stroke-width="1" fill="none" fill-rule="evenodd" sketch:type="MSPage">
        <g id="fmm" sketch:type="MSLayerGroup" fill="#000000" opacity="0.54">
            <g id="Welcome" sketch:type="MSShapeGroup">
                <g id="Desktop-HD">
                    <g id="Group">
                        <g id="fmm-+-Fresh-Made-Media-+-FRONT-END-DEVELOPER-+-2014">
                            <g id="fmm-+-Fresh-Made-Media">
                                <g id="fmm">
                                    <path d="M24.2125383,0.426380579 L0.517462606,0.426380579 L0.517462606,103.358735 L13.4300466,103.358735 L13.4300466,48.4909176 L24.2125383,48.4909176 L24.2125383,36.9013072 L13.4300466,36.9013072 L13.4300466,12.0139324 L24.2125383,12.0139324 L24.2125383,0.426380579 Z M118.912587,36.5338405 L118.912587,0.426380579 L106.916451,0.426380579 L77.0024787,37.2965655 L47.2184666,0.426380579 L35.0923701,0.426380579 L35.0923701,36.5338405 L48.009614,36.5338405 L48.009614,20.311268 L48.2726395,20.311268 L75.9483057,55.0739234 L78.0566518,55.0739234 L105.732318,20.311268 L105.995861,20.311268 L105.995861,36.5338405 L118.912587,36.5338405 Z M118.912587,48.5696605 L106.916451,48.5696605 L77.0024787,85.4393307 L47.2184666,48.5696605 L35.0923701,48.5696605 L35.0923701,103.358735 L48.009614,103.358735 L48.009614,68.4524893 L48.2726395,68.4524893 L75.9483057,103.217718 L78.0566518,103.217718 L105.732318,68.4524893 L105.995861,68.4524893 L105.995861,103.358735 L118.912587,103.358735 L118.912587,48.5696605 Z" id="Shape-4"></path>
                                </g>
                            </g>
                        </g>
                    </g>
                </g>
            </g>
        </g>
    </g>
</svg>