<?xml version="1.0" encoding="UTF-8" standalone="no"?>
<svg width="102px" height="89px" viewBox="0 0 102 89" version="1.1" xmlns="http://www.w3.org/2000/svg" xmlns:xlink="http://www.w3.org/1999/xlink" xmlns:sketch="http://www.bohemiancoding.com/sketch/ns">
    <!-- Generator: Sketch 3.3.3 (12072) - http://www.bohemiancoding.com/sketch -->
    <title>Shape-4</title>
    <desc>Created with Sketch.</desc>
    <defs></defs>
    <g id="Page-1" stroke="none" stroke-width="1" fill="none" fill-rule="evenodd" sketch:type="MSPage">
        <path d="M20.7751034,0.426380579 L0.517462606,0.426380579 L0.517462606,88.4263806 L11.5568233,88.4263806 L11.5568233,41.5182149 L20.7751034,41.5182149 L20.7751034,31.6099046 L11.5568233,31.6099046 L11.5568233,10.332931 L20.7751034,10.332931 L20.7751034,0.426380579 L20.7751034,0.426380579 Z M101.737055,31.2957461 L101.737055,0.426380579 L91.4811934,0.426380579 L65.9068288,31.9478229 L40.4435711,0.426380579 L30.0766025,0.426380579 L30.0766025,31.2957461 L41.1199471,31.2957461 L41.1199471,17.4265755 L41.3448156,17.4265755 L65.0055842,47.1462268 L66.8080734,47.1462268 L90.4688421,17.4265755 L90.694153,17.4265755 L90.694153,31.2957461 L101.737055,31.2957461 L101.737055,31.2957461 Z M101.737055,41.5855346 L91.4811934,41.5855346 L65.9068288,73.1065369 L40.4435711,41.5855346 L30.0766025,41.5855346 L30.0766025,88.4263806 L41.1199471,88.4263806 L41.1199471,58.5839696 L41.3448156,58.5839696 L65.0055842,88.3058209 L66.8080734,88.3058209 L90.4688421,58.5839696 L90.694153,58.5839696 L90.694153,88.4263806 L101.737055,88.4263806 L101.737055,41.5855346 L101.737055,41.5855346 Z" id="Shape-4" opacity="0.54" fill="#000000" sketch:type="MSShapeGroup"></path>
    </g>
</svg>