<?xml version="1.0" encoding="UTF-8" standalone="no"?>
<svg width="115px" height="101px" viewBox="0 0 115 101" version="1.1" xmlns="http://www.w3.org/2000/svg" xmlns:xlink="http://www.w3.org/1999/xlink" xmlns:sketch="http://www.bohemiancoding.com/sketch/ns">
    <!-- Generator: Sketch 3.2.2 (9983) - http://www.bohemiancoding.com/sketch -->
    <title>fmm</title>
    <desc>Created with Sketch.</desc>
    <defs></defs>
    <g id="Page-1" stroke="none" stroke-width="1" fill="none" fill-rule="evenodd" sketch:type="MSPage">
        <g id="fmm" sketch:type="MSLayerGroup" transform="translate(-1.000000, -1.000000)" fill="#FFFFFF">
            <g id="Page-1" sketch:type="MSShapeGroup">
                <g id="Group">
                    <g id="Shape" transform="translate(0.500000, 0.500000)">
                        <path d="M23.8743655,0.8765 L0.959441727,0.8765 L0.959441727,100.877 L13.4468835,100.877 L13.4468835,47.572 L23.8743655,47.572 L23.8743655,36.3125 L13.4468835,36.3125 L13.4468835,12.134 L23.8743655,12.134 L23.8743655,0.8765 L23.8743655,0.8765 Z"></path>
                        <path d="M115.456449,35.9555 L115.456449,0.8765 L103.855281,0.8765 L74.9262158,36.6965 L46.1228317,0.8765 L34.3959827,0.8765 L34.3959827,35.9555 L46.8879309,35.9555 L46.8879309,20.195 L47.1422964,20.195 L73.9067511,53.9675 L75.9456806,53.9675 L102.710135,20.195 L102.965001,20.195 L102.965001,35.9555 L115.456449,35.9555 L115.456449,35.9555 Z"></path>
                        <path d="M115.456449,47.6485 L103.855281,47.6485 L74.9262158,83.468 L46.1228317,47.6485 L34.3959827,47.6485 L34.3959827,100.877 L46.8879309,100.877 L46.8879309,66.965 L47.1422964,66.965 L73.9067511,100.74 L75.9456806,100.74 L102.710135,66.965 L102.965001,66.965 L102.965001,100.877 L115.456449,100.877 L115.456449,47.6485 L115.456449,47.6485 Z"></path>
                    </g>
                </g>
            </g>
        </g>
    </g>
</svg>